<svg id="b752e1f9-e312-418b-a9c7-591e6cf8ccf7" data-name="Capa 1" xmlns="http://www.w3.org/2000/svg" viewBox="0 0 512 512"><defs><style>.b69ce2cf-b255-4691-b794-141314112771{fill:#173557;}.f28afb6d-271c-4ce1-9c2e-f4b3889b067d{fill:#fff;}</style></defs><path class="b69ce2cf-b255-4691-b794-141314112771" d="M299,676.89h-2a47.71,47.71,0,0,0-3.57-3.93c-48.86-43.48-94.9-89.68-135.48-141.11-22.11-28-42.29-57.35-57.16-90-8.17-18-14.89-36.49-15.7-56.38-2-48.07,11.19-92,39.24-130.93,33.23-46.19,78.07-74.95,134.1-85.78,8.46-1.63,17-2.6,25.57-3.87h28c8,1.12,16.19,1.76,24.12,3.45,82.45,17.52,138.05,66,165.16,145.82,15.09,44.43,13.82,88.51-7.6,131.39-16.62,33.28-37.36,63.73-60.6,92.58C393.69,587,349.46,631.3,302.58,673A47.55,47.55,0,0,0,299,676.89Zm-1.3-149.28c82.08.36,149-66.18,149.49-148.72.53-81.87-65.85-149.55-147.14-150-83.6-.46-150.94,65.58-151.28,148.39A149.3,149.3,0,0,0,297.7,527.61Z" transform="translate(-42 -164.89)"/><path class="f28afb6d-271c-4ce1-9c2e-f4b3889b067d" d="M284,164.89c-8.53,1.27-17.11,2.24-25.57,3.87-56,10.83-100.87,39.59-134.1,85.78-28,39-41.21,82.86-39.24,130.93.81,19.89,7.53,38.42,15.7,56.38,14.87,32.65,35.05,62,57.16,90,40.58,51.43,86.62,97.63,135.48,141.11a47.71,47.71,0,0,1,3.57,3.93H42v-512Z" transform="translate(-42 -164.89)"/><path class="f28afb6d-271c-4ce1-9c2e-f4b3889b067d" d="M299,676.89a47.55,47.55,0,0,1,3.58-3.91c46.88-41.68,91.11-86,130.5-134.85,23.24-28.85,44-59.3,60.6-92.58,21.42-42.88,22.69-87,7.6-131.39-27.11-79.8-82.71-128.3-165.16-145.82C328.19,166.65,320,166,312,164.89H554v512Z" transform="translate(-42 -164.89)"/><path class="f28afb6d-271c-4ce1-9c2e-f4b3889b067d" d="M297.7,527.61A149.3,149.3,0,0,1,148.77,377.28c.34-82.81,67.68-148.85,151.28-148.39,81.29.45,147.67,68.13,147.14,150C446.67,461.43,379.78,528,297.7,527.61ZM181.64,379.81c5.15,5.94,9.63,11.41,14.5,16.52,1.1,1.16,3.59,1.69,5.32,1.49,17.22-2,34.41-4.3,51.62-6.45,7.44-.93,14.9-1.75,22.92-2.68v6.22c0,11.63-.6,23.3.2,34.88.56,8.07-2.1,13-8.77,17.33-7.87,5.07-15,11.22-23.6,17.75,6.21,5.75,12,10.9,17.52,16.35,2,2,3.52,2.34,6.07,1,8.83-4.6,17.73-9.11,26.78-13.26a9.25,9.25,0,0,1,6.71,0c9,4.15,17.83,8.86,26.84,13.1,1.4.66,4.06.62,5.13-.29,6.18-5.21,12.06-10.78,18.6-16.74-10.36-7.86-19.24-14.78-28.33-21.41-3-2.19-4.42-4.45-4.25-8.33.34-7.91.1-15.84.1-23.76V388.89c2.36.11,4.17.08,5.95.3,22.72,2.84,45.44,5.75,68.16,8.53,1.7.21,4.19.3,5.13-.68,5.15-5.44,9.94-11.22,15.12-17.2-2-.85-3.23-1.38-4.46-1.87-28.58-11.45-57.13-23-85.77-34.26-3.26-1.28-4.25-2.91-4.2-6.29.17-14.33.09-28.65.05-43a35.7,35.7,0,0,0-.56-7.54c-2.34-10.47-11.86-17.16-23-16.35a20.66,20.66,0,0,0-19.28,19.87c-.38,14,0,28-.21,42-.14,11.79,2.06,8.75-8.82,13.15C238.94,357,210.67,368.19,181.64,379.81Z" transform="translate(-42 -164.89)"/><path class="b69ce2cf-b255-4691-b794-141314112771" d="M181.64,379.81c29-11.62,57.3-22.86,85.51-34.27,10.88-4.4,8.68-1.36,8.82-13.15.17-14-.17-28,.21-42a20.66,20.66,0,0,1,19.28-19.87c11.1-.81,20.62,5.88,23,16.35a35.7,35.7,0,0,1,.56,7.54c0,14.33.12,28.65-.05,43-.05,3.38.94,5,4.2,6.29C351.77,355,380.32,366.52,408.9,378c1.23.49,2.44,1,4.46,1.87-5.18,6-10,11.76-15.12,17.2-.94,1-3.43.89-5.13.68-22.72-2.78-45.44-5.69-68.16-8.53-1.78-.22-3.59-.19-5.95-.3v22.64c0,7.92.24,15.85-.1,23.76-.17,3.88,1.24,6.14,4.25,8.33,9.09,6.63,18,13.55,28.33,21.41-6.54,6-12.42,11.53-18.6,16.74-1.07.91-3.73,1-5.13.29-9-4.24-17.8-8.95-26.84-13.1a9.25,9.25,0,0,0-6.71,0c-9.05,4.15-17.95,8.66-26.78,13.26-2.55,1.33-4.05,1-6.07-1-5.51-5.45-11.31-10.6-17.52-16.35,8.57-6.53,15.73-12.68,23.6-17.75,6.67-4.29,9.33-9.26,8.77-17.33-.8-11.58-.2-23.25-.2-34.88v-6.22c-8,.93-15.48,1.75-22.92,2.68-17.21,2.15-34.4,4.42-51.62,6.45-1.73.2-4.22-.33-5.32-1.49C191.27,391.22,186.79,385.75,181.64,379.81Z" transform="translate(-42 -164.89)"/></svg>