<svg id="b5d6f28d-c0fc-45af-a287-169e3eba6016" data-name="Capa 1" xmlns="http://www.w3.org/2000/svg" viewBox="0 0 512 512"><defs><style>.f4d78978-e4f4-4584-946f-4f37463d0981{fill:none;}.b6b40e38-0b8f-4349-93d2-d94080169c45{fill:#173557;}</style></defs><path class="f4d78978-e4f4-4584-946f-4f37463d0981" d="M42,676.89v-512H554v512Zm165.49-79.37c-.35,1.61-.66,3.2-1.05,4.78-3.87,15.67-7.8,31.32-11.64,47-1.88,7.67,1.4,11.76,9.4,11.78,13.84,0,27.68,0,41.51,0H439.27c9,0,12-3.85,9.91-12.61-.86-3.65-1.68-7.31-2.62-11.4h6c18,0,36,.15,54-.05a31.34,31.34,0,0,0,31.47-31.56q.21-65.54,0-131.07a55.47,55.47,0,0,0-9.45-31.64c-3-4.37-3-7.19,0-11.59,9.31-13.62,10-29.27,9.52-45.15a62.66,62.66,0,0,0-47.93-59.24c-2.56-.63-5.15-1.14-7.88-1.74,0-5.34,0-10.47,0-15.59,6.94-3.05,7.77-4.34,7.78-12.08,0-8.34-.2-16.68.07-25,.19-6-1.37-10.53-8-11.77A47.37,47.37,0,0,1,494,228.28c1.76-2.05,3.65-4.67,3.93-7.21,2.7-24.09-15.46-41.67-39.17-38-29.62,4.51-59.23,9.17-88.83,13.79-5.41.84-7.8,3.55-7.85,9.14q-.12,14.76,0,29.52c.05,6.42,3.06,9.28,9.63,9.37,4.47,0,8.95,0,13.85,0-2.07,23.57-12.45,42.47-28.73,58.09l11.33,11.88c5.14-6.14,10.39-11.72,14.84-17.87,11.19-15.43,17-33,18.83-51.73,14.26-1.44,17.47,1.78,15.86,15.44-5.63,1.21-7.81,4.83-7.67,10.5.2,8.5.29,17,0,25.51-.24,6.34,1,11.29,7.75,12.48v16c-1.25.28-2.2.55-3.17.7-13.26,2.13-24.33,8.32-34.17,17.39-23.72,21.87-23.28,69-7.5,90.44.92,1.24,1.91,3.77,1.32,4.6a66.9,66.9,0,0,0-11.87,30.42H298.79l6.6-79.37c5.23-1,8.64-3.49,8.66-9,0-10.34.24-20.69-.17-31-.1-2.43-1.94-6.34-3.76-6.86-4.91-1.4-4.65-4.86-5.06-8.42-.22-2-.52-4-.91-5.92-9.29-46-35.84-78-80.18-92.79-45-15-86-5.25-120.85,27C81.76,282.06,70,307.06,66.69,336c-.21,1.78-1.27,4.35-2.64,5-4.5,2-6.17,5.13-6.1,9.82.12,8.67,0,17.35,0,26s.74,9.76,8.58,12.91a6.74,6.74,0,0,1,.24,1q7.55,90.2,15.06,180.39c.63,7.61,3.09,10,10.66,10q48,0,96,0h5.23C194.74,595.87,194.74,595.87,207.49,597.52Z" transform="translate(-42 -164.89)"/><path class="b6b40e38-0b8f-4349-93d2-d94080169c45" d="M207.49,597.52c-12.75-1.65-12.75-1.65-13.72-16.47h-5.23q-48,0-96,0c-7.57,0-10-2.37-10.66-10Q74.35,480.87,66.8,390.67a6.74,6.74,0,0,0-.24-1C58.72,386.56,58,385.45,58,376.8s.09-17.35,0-26c-.07-4.69,1.6-7.84,6.1-9.82,1.37-.61,2.43-3.18,2.64-5,3.33-28.94,15.07-53.94,36.43-73.68,34.88-32.25,75.89-42,120.85-27,44.34,14.81,70.89,46.79,80.18,92.79.39,2,.69,3.94.91,5.92.41,3.56.15,7,5.06,8.42,1.82.52,3.66,4.43,3.76,6.86.41,10.32.2,20.67.17,31,0,5.5-3.43,8-8.66,9l-6.6,79.37h63.59a66.9,66.9,0,0,1,11.87-30.42c.59-.83-.4-3.36-1.32-4.6-15.78-21.42-16.22-68.57,7.5-90.44,9.84-9.07,20.91-15.26,34.17-17.39,1-.15,1.92-.42,3.17-.7v-16c-6.71-1.19-8-6.14-7.75-12.48.32-8.49.23-17,0-25.51-.14-5.67,2-9.29,7.67-10.5,1.61-13.66-1.6-16.88-15.86-15.44C400.06,264,394.22,281.52,383,297c-4.45,6.15-9.7,11.73-14.84,17.87l-11.33-11.88c16.28-15.62,26.66-34.52,28.73-58.09-4.9,0-9.38,0-13.85,0-6.57-.09-9.58-3-9.63-9.37q-.12-14.76,0-29.52c.05-5.59,2.44-8.3,7.85-9.14,29.6-4.62,59.21-9.28,88.83-13.79,23.71-3.62,41.87,14,39.17,38-.28,2.54-2.17,5.16-3.93,7.21a47.37,47.37,0,0,0-11.87,32.31c6.67,1.24,8.23,5.73,8,11.77-.27,8.33-.07,16.67-.07,25,0,7.74-.84,9-7.78,12.08,0,5.12,0,10.25,0,15.59,2.73.6,5.32,1.11,7.88,1.74A62.66,62.66,0,0,1,538.15,386c.49,15.88-.21,31.53-9.52,45.15-3,4.4-3,7.22,0,11.59a55.47,55.47,0,0,1,9.45,31.64q.15,65.54,0,131.07A31.34,31.34,0,0,1,506.62,637c-18,.2-36,.05-54,.05h-6c.94,4.09,1.76,7.75,2.62,11.4,2.05,8.76-.93,12.61-9.91,12.61H245.71c-13.83,0-27.67,0-41.51,0-8,0-11.28-4.11-9.4-11.78,3.84-15.68,7.77-31.33,11.64-47C206.83,600.72,207.14,599.13,207.49,597.52Zm234.88,23.55c21,0,41.54,0,62,0,11.42,0,17.72-6.23,17.73-17.56q0-63.29,0-126.56c0-12.73-4-23.81-12.65-33.24-4.64-5.08-4.64-8.42,0-13.5a45.73,45.73,0,0,0,12.42-28.26,128.59,128.59,0,0,0,0-18c-1.61-23.48-21.29-42.47-44.77-42.93-18-.34-36-.54-54,.06-18.54.63-32,9.95-40.5,26.46-5.19,10.09-4.78,21-4.53,31.79A45.48,45.48,0,0,0,389.65,429c6.07,6.95,6,8.9-.17,16.13-5.78,6.79-9.72,14.42-10.58,23.87h5.5c15.84,0,31.67,0,47.51,0,7.42,0,10.17,2.82,10.19,10.32,0,9.33.06,18.67,0,28-.05,6.76-3,9.66-9.84,9.67-16.17,0-32.35,0-48.52,0h-5.28v32h5.84c18.67,0,37.34,0,56,0,6.25,0,9.64,2.73,9.73,8.21.19,10.5.16,21,0,31.52-.07,5-3.22,7.94-8.19,8.25-1.63.1-3.28,0-5.46,0C438.45,605.29,440.37,613,442.37,621.07ZM289.3,340.65c-2-47.3-44.79-98.8-108.65-95.57C117.88,248.26,83.3,301.87,83,340.65ZM194,564.85c0-2.17,0-4,0-5.77.08-7.22,2.8-10,10-10,4,0,8-.28,12,.07,3.6.31,5.18-1.1,6.46-4.37,8.81-22.47,17.83-44.86,26.78-67.28,3-7.54,4.38-8.47,12.65-8.48h20.84c2.24-27.11,4.41-53.4,6.58-79.66H218v5.86q0,55.53,0,111.05c0,8.13-2.64,10.77-10.76,10.77q-45,0-90,0c-8.8,0-11.25-2.47-11.25-11.29q0-55.53,0-111v-5.43H82.71C87.6,448,92.47,506.33,97.34,564.85Zm7.65-64.07V357.32H122.27V500.78Zm218.26,96.6H224.2c-4,15.92-7.86,31.55-11.83,47.49h31.4l6.62-25.7L265.71,623c-1.8,7.52-3.49,14.56-5.22,21.8h29.72V621.31h15.91v23.41h32.09V621.39h16.08v23.49h29.38c-1.75-7.33-3.44-14.38-5.22-21.84l15.33-3.85c2.29,8.88,4.46,17.34,6.61,25.68h31.39C427.8,628.92,423.9,613.28,419.94,597.38Zm5.92-112a12.6,12.6,0,0,0-1.77-.32q-78.75,0-157.48-.11c-3.17,0-3.83,1.7-4.71,3.92q-8.47,21.35-17,42.66c-2.26,5.68-4.51,11.37-6.95,17.54,6.1,0,11.59-.3,17,.09,4,.29,5.87-1,7.06-4.91,3.57-11.61,7.54-23.08,11.37-34.6,2.45-7.37,4.15-8.61,11.89-8.61H425.86ZM210.25,580.69H433.87V565.3H210.25ZM465.69,260.63a8.2,8.2,0,0,0,.4-1.57,63.64,63.64,0,0,1,14.38-39.56c1.25-1.56,1.65-4.35,1.44-6.46a16,16,0,0,0-17.28-14.41c-5.29.38-10.54,1.38-15.8,2.18-12.8,1.95-25.59,3.95-38.53,5.95v21.93c7.93.66,15.36,3.32,18.94,10.33,3.33,6.51,4.5,14.12,6.73,21.61ZM361.87,517c-24,0-47.47,0-70.92.09-1.29,0-3.35,1.09-3.72,2.14-3.45,9.67-6.6,19.44-9.92,29.45h84.56ZM218.26,372.57h79.39V357.18H218.26ZM473.9,277.22H426.51v15.4H473.9Zm-8,47.46V309.19H434.46v15.49ZM74.09,372.63h31.56V357.29H74.09Zm319.66-144V209.32l-15.38,2.4v16.91Z" transform="translate(-42 -164.89)"/><path class="f4d78978-e4f4-4584-946f-4f37463d0981" d="M442.37,621.07c-2-8.08-3.92-15.78-6-24,2.18,0,3.83.08,5.46,0,5-.31,8.12-3.27,8.19-8.25.15-10.51.18-21,0-31.52-.09-5.48-3.48-8.19-9.73-8.21-18.67,0-37.34,0-56,0h-5.84V517h5.28c16.17,0,32.35,0,48.52,0,6.85,0,9.79-2.91,9.84-9.67.06-9.34,0-18.68,0-28,0-7.5-2.77-10.3-10.19-10.32-15.84,0-31.67,0-47.51,0h-5.5c.86-9.45,4.8-17.08,10.58-23.87,6.16-7.23,6.24-9.18.17-16.13a45.48,45.48,0,0,1-11.51-29.64c-.25-10.83-.66-21.7,4.53-31.79,8.49-16.51,22-25.83,40.5-26.46,18-.6,36-.4,54-.06,23.48.46,43.16,19.45,44.77,42.93a128.59,128.59,0,0,1,0,18,45.73,45.73,0,0,1-12.42,28.26c-4.66,5.08-4.66,8.42,0,13.5,8.6,9.43,12.67,20.51,12.65,33.24q-.06,63.29,0,126.56c0,11.33-6.31,17.55-17.73,17.56C483.91,621.09,463.41,621.07,442.37,621.07Z" transform="translate(-42 -164.89)"/><path class="f4d78978-e4f4-4584-946f-4f37463d0981" d="M289.3,340.65H83c.33-38.78,34.91-92.39,97.68-95.57C244.51,241.85,287.34,293.35,289.3,340.65Z" transform="translate(-42 -164.89)"/><path class="f4d78978-e4f4-4584-946f-4f37463d0981" d="M194,564.85H97.34C92.47,506.33,87.6,448,82.71,389.24H106v5.43q0,55.51,0,111.05c0,8.82,2.45,11.28,11.25,11.29q45,0,90,0c8.12,0,10.76-2.64,10.76-10.77q0-55.53,0-111v-5.86h71.26c-2.17,26.26-4.34,52.55-6.58,79.66H261.87c-8.27,0-9.64.94-12.65,8.48-8.95,22.42-18,44.81-26.78,67.28-1.28,3.27-2.86,4.68-6.46,4.37-4-.35-8-.11-12-.07-7.16.07-9.88,2.82-10,10C194,560.88,194,562.68,194,564.85Z" transform="translate(-42 -164.89)"/><path class="f4d78978-e4f4-4584-946f-4f37463d0981" d="M201.68,500.78H122.27V357.32h79.41Z" transform="translate(-42 -164.89)"/><path class="f4d78978-e4f4-4584-946f-4f37463d0981" d="M419.94,597.38c4,15.9,7.86,31.54,11.84,47.49H400.39c-2.15-8.34-4.32-16.8-6.61-25.68L378.45,623c1.78,7.46,3.47,14.51,5.22,21.84H354.29V621.39H338.21v23.33H306.12V621.31H290.21v23.48H260.49c1.73-7.24,3.42-14.28,5.22-21.8l-15.32-3.82-6.62,25.7h-31.4c4-15.94,7.86-31.57,11.83-47.49Z" transform="translate(-42 -164.89)"/><path class="f4d78978-e4f4-4584-946f-4f37463d0981" d="M425.86,485.34V501H285.29c-7.74,0-9.44,1.24-11.89,8.61-3.83,11.52-7.8,23-11.37,34.6-1.19,3.88-3,5.2-7.06,4.91-5.45-.39-10.94-.09-17-.09,2.44-6.17,4.69-11.86,6.95-17.54q8.51-21.33,17-42.66c.88-2.22,1.54-3.93,4.71-3.92q78.74.18,157.48.11A12.6,12.6,0,0,1,425.86,485.34Z" transform="translate(-42 -164.89)"/><path class="f4d78978-e4f4-4584-946f-4f37463d0981" d="M210.25,580.69V565.3H433.87v15.39Z" transform="translate(-42 -164.89)"/><path class="f4d78978-e4f4-4584-946f-4f37463d0981" d="M465.69,260.63H436c-2.23-7.49-3.4-15.1-6.73-21.61-3.58-7-11-9.67-18.94-10.33V206.76c12.94-2,25.73-4,38.53-5.95,5.26-.8,10.51-1.8,15.8-2.18A16,16,0,0,1,481.91,213c.21,2.11-.19,4.9-1.44,6.46a63.64,63.64,0,0,0-14.38,39.56A8.2,8.2,0,0,1,465.69,260.63Z" transform="translate(-42 -164.89)"/><path class="f4d78978-e4f4-4584-946f-4f37463d0981" d="M361.87,517v31.68H277.31c3.32-10,6.47-19.78,9.92-29.45.37-1,2.43-2.13,3.72-2.14C314.4,517,337.85,517,361.87,517Z" transform="translate(-42 -164.89)"/><path class="f4d78978-e4f4-4584-946f-4f37463d0981" d="M218.26,372.57V357.18h79.39v15.39Z" transform="translate(-42 -164.89)"/><path class="f4d78978-e4f4-4584-946f-4f37463d0981" d="M473.9,277.22v15.4H426.51v-15.4Z" transform="translate(-42 -164.89)"/><path class="f4d78978-e4f4-4584-946f-4f37463d0981" d="M465.85,324.68H434.46V309.19h31.39Z" transform="translate(-42 -164.89)"/><path class="f4d78978-e4f4-4584-946f-4f37463d0981" d="M74.09,372.63V357.29h31.56v15.34Z" transform="translate(-42 -164.89)"/><path class="f4d78978-e4f4-4584-946f-4f37463d0981" d="M393.75,228.63H378.37V211.72l15.38-2.4Z" transform="translate(-42 -164.89)"/></svg>