<svg xmlns="http://www.w3.org/2000/svg" viewBox="0 0 100 74.02"><defs><style>.bdae1ea7-dd53-443f-a728-b4194c0f86b4{fill:#3d3d4a;fill-rule:evenodd;}</style></defs><g id="b72dbf6c-8a4c-41b9-ae0a-04f650f2b52a" data-name="Capa 2"><g id="f748005a-661b-4b30-947d-11dff6a1d443" data-name="Capa 4"><path class="bdae1ea7-dd53-443f-a728-b4194c0f86b4" d="M33.49,2.48a21.07,21.07,0,0,0-5.25,8.23,23,23,0,0,0-.08,15.23,21.74,21.74,0,0,0,5.23,8.58c2.23,2.31,3.1,2.84,3.78,2.28s.43-1.45-1-2.66a21.38,21.38,0,0,1-4.95-6.76,17.72,17.72,0,0,1-1.9-9,16.6,16.6,0,0,1,2.18-9.24,15.66,15.66,0,0,1,3.68-5.11C37.48,1.64,37.88.93,37.25.3S35.88,0,33.49,2.48Z"/><path class="bdae1ea7-dd53-443f-a728-b4194c0f86b4" d="M47,.27C37.45,2,30.62,10.91,31.69,20.3A18.29,18.29,0,0,0,42,35.15,17.11,17.11,0,0,0,51.13,37,17.25,17.25,0,0,0,63.19,31.5a18,18,0,0,0,4.44-18.81A18.56,18.56,0,0,0,54.69.6,24.59,24.59,0,0,0,47,.27ZM53.9,2.79A16.54,16.54,0,0,1,65.83,14.72a20.36,20.36,0,0,1,0,7.74,17.23,17.23,0,0,1-8.18,10.36A16,16,0,0,1,35.52,25.5a14.12,14.12,0,0,1-1.6-6.93,14.76,14.76,0,0,1,1.5-6.87A16.19,16.19,0,0,1,53.9,2.79Z"/><path class="bdae1ea7-dd53-443f-a728-b4194c0f86b4" d="M44.45,7.08c-.16.33-.26,4.39-.26,11.44s.1,11.12.26,11.45a1.28,1.28,0,0,0,1.77.23c.31-.18.41-1.07.46-4.8l.08-4.54,3.09-.1c3.58-.1,4.47-.43,6.2-2.29a6.11,6.11,0,0,0,1.7-4.77,6.68,6.68,0,0,0-4-6.32c-1.53-.76-1.63-.79-5.31-.79C45,6.59,44.7,6.64,44.45,7.08ZM53.2,9.72a4.87,4.87,0,0,1,.16,8c-.84.56-1.25.64-3.81.71l-2.87.1V8.83l2.77.1C51.93,9,52.29,9.08,53.2,9.72Z"/><path class="bdae1ea7-dd53-443f-a728-b4194c0f86b4" d="M63.14.27c-.86.48-.48,1.27,1.65,3.51a28.41,28.41,0,0,1,3.23,4A21.33,21.33,0,0,1,70.81,21a20.82,20.82,0,0,1-6,12.28c-2.05,2.13-2.44,2.85-1.8,3.48s1.19.3,2.87-1.24a24.63,24.63,0,0,0,6.78-11.3,26.52,26.52,0,0,0-.13-11.55A22.83,22.83,0,0,0,66.19,1.87C64.49.2,63.83-.13,63.14.27Z"/><path class="bdae1ea7-dd53-443f-a728-b4194c0f86b4" d="M29.58,46.78l-.67.17V60H31.2V58a4.81,4.81,0,0,1,.21-2,15.63,15.63,0,0,1,1.91,2.16,12.83,12.83,0,0,0,1.93,2.16,4.59,4.59,0,0,0,1.86-1.07,13.35,13.35,0,0,0-1.43-1.78c-.78-.89-1.58-1.8-1.77-2-.35-.41-.22-.61,1.34-2.11L37,51.6l-.67-.48a2.51,2.51,0,0,0-.94-.51,15,15,0,0,0-2.2,1.83l-2,1.83V50.41C31.2,46.19,31.25,46.35,29.58,46.78Z"/><path class="bdae1ea7-dd53-443f-a728-b4194c0f86b4" d="M68.65,46.68c-.76.15-.76.17-.84,2.08l-.07,1.9-1.45-.1a2.77,2.77,0,0,0-3.22,1.88,10.7,10.7,0,0,0-.06,6,3,3,0,0,0,4.45,1.22c.63-.38.81-.43.81-.13,0,.58.46.69,1.42.33.74-.25.86-.41.71-.84s-.23-3.22-.28-6.55c-.1-4.31-.2-6-.43-6S69.08,46.57,68.65,46.68Zm-.94,8.4c.08,2.87-.1,3.3-1.37,3.3-1,0-1.37-.92-1.37-3.05,0-2.44.38-3.1,1.73-3l.93.07Z"/><path class="bdae1ea7-dd53-443f-a728-b4194c0f86b4" d="M80.47,47.49c-1.81.89-2.69,3.3-2.52,6.9.13,2.82.87,4.42,2.39,5.28a6.3,6.3,0,0,0,5.13.08l1.06-.48V53.4H82.47v.89a.89.89,0,0,0,.89.89h.89v3H83.16c-1.37,0-2.06-.64-2.49-2.37a11.29,11.29,0,0,1,.38-5.68c.61-1.19,1.65-1.5,3.22-1a4.55,4.55,0,0,0,1.38.35,4.57,4.57,0,0,0,.63-1.47C86.28,47.13,82.07,46.7,80.47,47.49Z"/><path class="bdae1ea7-dd53-443f-a728-b4194c0f86b4" d="M3.78,53.66V60H6.06V55l1.45-.15a3.86,3.86,0,0,0,3.81-3.66A4.43,4.43,0,0,0,11,49c-.56-1.34-1.55-1.7-4.72-1.7H3.78Zm4.72-4a2,2,0,0,1,.36,1.27,1.78,1.78,0,0,1-1.91,2H6.06V51.17a5.07,5.07,0,0,1,.21-1.93C6.5,49,8,49.24,8.5,49.62Z"/><path class="bdae1ea7-dd53-443f-a728-b4194c0f86b4" d="M14,50.79c-.82.33-.82.28-.49,1.22.23.61.41.78.71.66a5.61,5.61,0,0,1,1.48-.31c1.29-.18,1.85.2,1.85,1.22,0,.71-.05.74-1.14.74-2.44,0-3.68,1.06-3.68,3.12a2.25,2.25,0,0,0,.73,2,3.11,3.11,0,0,0,3.61.33c.71-.36.81-.36,1.11,0s.41.41,1.1.13L20,59.6l-.1-1.88c-.36-6.55-.31-6.27-1.4-6.83A8.6,8.6,0,0,0,14,50.79Zm3.5,6c-.05,1-.2,1.27-.69,1.5A1.24,1.24,0,0,1,15,56.68a1.69,1.69,0,0,1,1-.82C17.5,55.46,17.53,55.48,17.45,56.78Z"/><path class="bdae1ea7-dd53-443f-a728-b4194c0f86b4" d="M22.36,50.94c-.46.2-.56.41-.43.79a33.77,33.77,0,0,1,.3,4.39L22.36,60H24.6V56.7c0-3.22,0-3.3.63-3.7a1.71,1.71,0,0,1,1.17-.28c.4.1.61,0,.89-.71.5-1.27.45-1.4-.64-1.4a2.58,2.58,0,0,0-1.75.63l-.76.64L24,51.24C23.81,50.56,23.33,50.46,22.36,50.94Z"/><path class="bdae1ea7-dd53-443f-a728-b4194c0f86b4" d="M44.92,50.69c-.84.3-1,.58-.72,1.37.21.56.39.71.69.61a5.62,5.62,0,0,1,1.47-.31c1.3-.18,1.86.2,1.86,1.22,0,.71-.06.74-1.17.74-2.21,0-3.66,1.19-3.66,3,0,2.36,2.41,3.58,4.52,2.29.69-.41.81-.43.81-.13,0,.61.64.71,1.5.28.69-.36.74-.48.53-1.07a14.6,14.6,0,0,1-.25-3.3c0-2.87-.36-4.19-1.22-4.64A11.76,11.76,0,0,0,44.92,50.69Zm3.24,6.09c0,1-.17,1.27-.71,1.52a.9.9,0,0,1-1.14,0,1.49,1.49,0,0,1-.4-1.88A3.91,3.91,0,0,1,48,55.61C48.14,55.59,48.22,56.12,48.16,56.78Z"/><path class="bdae1ea7-dd53-443f-a728-b4194c0f86b4" d="M53.18,50.79c-.41.1-.46.28-.31,1.27.08.63.16,2.69.16,4.54V60h2.28V56.6c0-3.6,0-3.78,1.3-4.09s1.49.28,1.49,4.09V60h2.29V56.19c0-5-.26-5.58-2.59-5.58a4.29,4.29,0,0,0-1.88.51l-.81.53-.18-.53C54.78,50.61,54.24,50.51,53.18,50.79Z"/><path class="bdae1ea7-dd53-443f-a728-b4194c0f86b4" d="M90.43,51c-2.61,1.57-2.49,7.36.18,8.68a4.29,4.29,0,0,0,3.81,0c2.64-1.39,2.76-7.08.2-8.65A4.59,4.59,0,0,0,90.43,51Zm3.12,1.9A4.44,4.44,0,0,1,94,55.33c0,2-.48,3.05-1.44,3.05S91,57.54,91,55.33c0-1.6.1-2.08.48-2.51A1.23,1.23,0,0,1,93.55,52.92Z"/><path class="bdae1ea7-dd53-443f-a728-b4194c0f86b4" d="M2.52,67.44a3.25,3.25,0,1,0,2.29,6c.43-.23.76-.51.76-.63,0-.33-.15-.33-1.07.15a2.57,2.57,0,0,1-3.09-.63,2.67,2.67,0,0,1,1-4.32c.68-.33,1.32-.23,2.86.38.16.08.31,0,.31-.15C5.57,67.69,3.49,67.11,2.52,67.44Z"/><path class="bdae1ea7-dd53-443f-a728-b4194c0f86b4" d="M8.51,68.68,7,72c-.59,1.3-.79,2-.59,2s.51-.4.74-.88l.43-.89h3.55l.44.89c.22.48.55.88.73.88.38,0-2.44-6.39-2.89-6.55C9.25,67.36,8.87,67.9,8.51,68.68Zm1.65,1c.33.81.66,1.54.69,1.65s-.61.2-1.47.2-1.53-.1-1.48-.2.36-.84.69-1.65a5.94,5.94,0,0,1,.79-1.45A6.1,6.1,0,0,1,10.16,69.73Z"/><path class="bdae1ea7-dd53-443f-a728-b4194c0f86b4" d="M13.68,70.64c0,2,.1,3.32.25,3.32s.26-.45.26-1v-1h1.24c1.14,0,1.27,0,1.91,1,.35.56.83,1,1,1s.17-.3-.38-1.06c-.79-1.07-.79-1.07-.26-1.47a2.43,2.43,0,0,0,.64-2.72c-.38-.91-.77-1.09-3-1.27l-1.73-.15Zm3.86-2.08a1.56,1.56,0,0,1,0,2.15c-.3.33-.78.46-1.9.46H14.19V69.7a4.14,4.14,0,0,1,.2-1.68C14.67,67.72,17.06,68.13,17.54,68.56Z"/><path class="bdae1ea7-dd53-443f-a728-b4194c0f86b4" d="M20.53,70.56c0,2,.11,3.3.26,3.3s.25-.43.25-1v-1l1.47-.18c1.76-.2,2.49-.66,2.72-1.67.38-1.71-.94-2.75-3.48-2.77l-1.22,0Zm3.56-2.18c.35.18.51.53.51,1.14,0,1.25-.54,1.65-2.19,1.65H21V67.8l1.27.15A6.3,6.3,0,0,1,24.09,68.38Z"/><path class="bdae1ea7-dd53-443f-a728-b4194c0f86b4" d="M28.57,67.57C27.83,68.76,25.72,74,26,74s.51-.4.73-.88l.44-.89h3.58l.38.89c.2.48.53.88.71.88s-.05-1-1.09-3.22C29.33,67.67,28.9,67,28.57,67.57Zm1.17,2.31.66,1.57-1.4.08a5.78,5.78,0,0,1-1.5,0,12.43,12.43,0,0,1,1.4-3.22A7.12,7.12,0,0,1,29.74,69.88Z"/><path class="bdae1ea7-dd53-443f-a728-b4194c0f86b4" d="M33.23,70.66c0,2,.1,3.3.25,3.3s.25-.45.25-1v-1H35c1.14,0,1.27,0,1.9,1,.36.56.79,1,.92,1,.38,0,.3-.17-.39-1.19l-.6-.91.6-.59a2.58,2.58,0,0,0,.31-3c-.36-.51-1.85-.89-3.4-.92H33.23Zm3.85-2.1a1.55,1.55,0,0,1,0,2.15c-.3.33-.79.46-1.9.46H33.73V69.7A4.08,4.08,0,0,1,33.94,68C34.22,67.72,36.6,68.13,37.08,68.56Z"/><path class="bdae1ea7-dd53-443f-a728-b4194c0f86b4" d="M40.05,70.56c0,2,.11,3.3.26,3.3s.25-.38.25-.86c0-.79.79-2.18,1.25-2.18a7.57,7.57,0,0,1,1.37,1.52c.66.84,1.37,1.52,1.6,1.52s-.08-.58-1-1.8l-1.42-1.83,1.29-1.47c1.91-2.21.92-1.83-1.21.46l-1.83,2,0-2c0-1.12-.1-2-.25-2S40.05,68.53,40.05,70.56Z"/><path class="bdae1ea7-dd53-443f-a728-b4194c0f86b4" d="M49,70.56c0,4,.45,4.5.56.56l.07-2.71,1.25,2.33a10.09,10.09,0,0,0,1.47,2.36,12.07,12.07,0,0,0,1.39-2.36l1.22-2.33L55,71.12c.1,3.94.56,3.48.56-.56s-.28-4.29-2-.91a8.47,8.47,0,0,1-1.39,2.28,14.25,14.25,0,0,1-1.35-2.41C49.26,66.3,49,66.45,49,70.56Z"/><path class="bdae1ea7-dd53-443f-a728-b4194c0f86b4" d="M59.23,68.28c-.2.51-.84,1.9-1.39,3.09C56.77,73.68,56.69,74,57.13,74c.12,0,.43-.4.63-.88l.36-.89h3.55l.43.89c.56,1.19,1.22,1.24.71,0-1.14-2.75-2.66-5.77-2.92-5.77S59.44,67.77,59.23,68.28Zm1.5,1.57a6.48,6.48,0,0,1,.58,1.65,5.68,5.68,0,0,1-1.49,0l-1.4-.08.66-1.57a6.3,6.3,0,0,1,.84-1.6A6.55,6.55,0,0,1,60.73,69.85Z"/><path class="bdae1ea7-dd53-443f-a728-b4194c0f86b4" d="M64.2,70.66V74H66c1,0,1.78-.1,1.78-.25s-.64-.25-1.4-.25H65v-3c0-2.54,0-3-.38-3S64.2,67.9,64.2,70.66Z"/><path class="bdae1ea7-dd53-443f-a728-b4194c0f86b4" d="M69,70.66V74H70.8c2.13,0,2.38-.45.33-.55l-1.48-.08-.07-3C69.48,66.22,69,66.48,69,70.66Z"/><path class="bdae1ea7-dd53-443f-a728-b4194c0f86b4" d="M75.15,67.72a3.22,3.22,0,0,0,1.5,6.14,3.59,3.59,0,0,0,3.3-3.3,3.32,3.32,0,0,0-1.88-2.81A2.68,2.68,0,0,0,75.15,67.72Zm2.36.41a2.58,2.58,0,0,1,.94,4.26,2.64,2.64,0,0,1-3.86,0,2.57,2.57,0,0,1,.79-4.16C76.44,67.67,76.44,67.67,77.51,68.13Z"/><path class="bdae1ea7-dd53-443f-a728-b4194c0f86b4" d="M81.46,70.66c0,2,.1,3.3.25,3.3s.25-.45.25-1V72l1.17-.1c1.12-.07,1.17,0,1.83,1,.81,1.3,1.62,1.58.89.31a7,7,0,0,0-.76-1c-.26-.21-.16-.44.43-1,1.34-1.24.86-3-1-3.55a9.76,9.76,0,0,0-2-.26H81.46Zm2.84-2.53c1.09.3,1.55,1,1.32,1.9s-.81,1.14-2.36,1.14H82V69.52c0-1.62,0-1.65.72-1.65A8.31,8.31,0,0,1,84.3,68.13Z"/><path class="bdae1ea7-dd53-443f-a728-b4194c0f86b4" d="M89.47,67.62a2.86,2.86,0,0,0-1.86,2.79,2.21,2.21,0,0,0,.74,2.31,3.27,3.27,0,0,0,3.88.79c1.32-.56.94-.94-.43-.46a2,2,0,0,1-2,0,3.14,3.14,0,0,1-1.78-2.54,2.75,2.75,0,0,1,3.83-2.43c.48.22.92.33,1,.2.28-.28-1.29-1.07-2.13-1.07A5.75,5.75,0,0,0,89.47,67.62Z"/><path class="bdae1ea7-dd53-443f-a728-b4194c0f86b4" d="M95.18,70.46l-1.48,3.3c0,.1.08.2.28.2s.54-.4.69-.88l.3-.89h3.66l.43.89c.36.76.94,1.21.94.76a38.66,38.66,0,0,0-3.15-6.48A13.2,13.2,0,0,0,95.18,70.46Zm2.43-.79a12,12,0,0,1,.61,1.65c0,.16-.63.26-1.39.26s-1.4-.1-1.4-.23a14.57,14.57,0,0,1,1.42-3.07A5.65,5.65,0,0,1,97.61,69.67Z"/></g></g></svg>