<svg id="b0cabd3c-c092-43fb-9ced-58811dc1277f" data-name="Capa 1" xmlns="http://www.w3.org/2000/svg" viewBox="0 0 478.1 556.11"><defs><style>.a7b0443c-6316-47eb-a1e0-eb2a9fbabe81{fill:#173557;}.beb4e4b6-903f-43be-8fa2-872f673061b5{fill:none;}</style></defs><path class="a7b0443c-6316-47eb-a1e0-eb2a9fbabe81" d="M481,174.36c0-8.5-.12-17,.09-25.49,0-1.94.69-4.83,2-5.5s4.18.25,5.73,1.36c26.39,18.85,43.09,44.18,47,76.41,6.05,49.53-13,87.74-55.24,114.21-3.18,2-4.07,4-4,7.53q1.93,151.44,3.68,302.87c.3,25.28-15.08,46.06-38.46,51.93-23.19,5.82-47.73-4.91-58-26.37a54.81,54.81,0,0,1-5.55-22c-1.34-78.79-2.17-157.59-3.15-236.39-.29-23.14-.68-46.28-.82-69.43,0-3.47-1.19-5.15-4.24-6.81-72.31-39.36-79.6-140.49-13.73-189.84,1.44-1.08,3.08-2.49,4.7-2.59,3.6-.2,4,2.55,4.07,5.48.16,15.33.25,30.66.64,46,.8,31.42,22.81,55,53.82,57.79,30.43,2.78,59.52-21.69,61.58-52.17.61-9,.1-18,.1-27Zm-44.47,335c-.7-59.57-1.21-103.69-1.75-147.81-.1-8.41-3.38-12.77-9.4-12.66s-8.93,4.55-8.83,13.06q1.37,116.21,2.76,232.41c.13,11.16.27,22.32.55,33.48.14,5.61,3.87,9.27,9,9.27s8.85-3.75,9.11-9.25c.08-1.83,0-3.67,0-5.5C437.4,579.54,436.85,536.73,436.5,509.36Z" transform="translate(-58.8 -143.13)"/><path class="a7b0443c-6316-47eb-a1e0-eb2a9fbabe81" d="M77,513.83c1.76-23.07,3.46-45.32,5.17-67.57.48-6.31.69-12.66,1.58-18.91,1.91-13.38,9.51-22.08,22.6-25.63,2.92-.78,4.25-2,5-5.09,6.13-24.72,12.52-49.38,18.82-74.06,3.86-15.12,13.31-23,29.05-23.07q67.25-.28,134.48.05a7.13,7.13,0,0,1,4.9,2.88c2.28,3.23,4,6.88,6.39,11.23h-5.77l-138,0c-11.08,0-14.84,3-17.56,13.62-5.55,21.76-11.15,43.5-17,66.08H346.67c.67,53.46,1.32,106.17,2,159.43H132.79v5.8q0,27.25,0,54.5c0,8.68-2.61,11.2-11.39,11.18-11.33,0-22.66,0-34,0-7.82,0-10.39-2.62-10.4-10.56q0-27.26,0-54.49V552.9c-3.2,0-6.12.09-9,0-5.81-.23-8.95-3.26-9.07-9.06-.16-7-.14-14,0-21,.11-5.68,3.35-8.79,9.13-9C70.83,513.75,73.62,513.83,77,513.83Zm172.58-79v.06H273c12.64,0,25.29,0,37.94-.07,4.95,0,8-2.86,8-7s-3.12-6.81-8-7c-.5,0-1,0-1.5,0L189,420.79c-4.85,0-8,2.69-8.15,6.88-.15,4.35,2.94,7.16,8.22,7.18C209.26,434.9,229.41,434.87,249.57,434.87Zm.38,63h61.41c3.85,0,6.92-1.9,7.12-5.52.14-2.46-1.63-5.44-3.4-7.44-1-1.13-3.72-1-5.66-1q-59.42-.09-118.82-.05a21.19,21.19,0,0,0-4,.16c-4.89.93-7.69,6.53-4.61,10.23a11.16,11.16,0,0,0,7.54,3.48C209.67,498,229.81,497.89,250,497.9Zm-.45-45.5q-29,0-58,0c-1.83,0-4.17-.49-5.36.43-2.14,1.64-4.9,4.16-5,6.36s2.62,4.81,4.64,6.63c1,.88,3.2.46,4.85.46q59,0,118,0a27.92,27.92,0,0,0,4-.12c3.81-.55,6.16-2.86,6.17-6.65,0-4-2.23-6.54-6.35-7a43.7,43.7,0,0,0-5-.13Zm-99.68,4.7a23.05,23.05,0,0,0-22.78-23c-12.12-.08-22.62,10.22-22.85,22.43a23.13,23.13,0,0,0,22.55,23.22C139.08,480,149.69,469.58,149.82,457.1Z" transform="translate(-58.8 -143.13)"/><path class="beb4e4b6-903f-43be-8fa2-872f673061b5" d="M436.5,509.36c.35,27.37.9,70.18,1.45,113,0,1.83.1,3.67,0,5.5-.26,5.5-4,9.25-9.11,9.25s-8.89-3.66-9-9.27c-.28-11.16-.42-22.32-.55-33.48Q417.89,478.16,416.52,362c-.1-8.51,2.93-13,8.83-13.06s9.3,4.25,9.4,12.66C435.29,405.67,435.8,449.79,436.5,509.36Z" transform="translate(-58.8 -143.13)"/><path class="beb4e4b6-903f-43be-8fa2-872f673061b5" d="M249.57,434.87c-20.16,0-40.31,0-60.47,0-5.28,0-8.37-2.83-8.22-7.18.14-4.19,3.3-6.88,8.15-6.88l120.42.07c.5,0,1,0,1.5,0,4.91.16,8,2.88,8,7s-3.05,7-8,7c-12.65.1-25.3.06-37.94.07H249.57Z" transform="translate(-58.8 -143.13)"/><path class="beb4e4b6-903f-43be-8fa2-872f673061b5" d="M250,497.9c-20.14,0-40.28.12-60.41-.16a11.16,11.16,0,0,1-7.54-3.48c-3.08-3.7-.28-9.3,4.61-10.23a21.19,21.19,0,0,1,4-.16q59.4,0,118.82.05c1.94,0,4.66-.12,5.66,1,1.77,2,3.54,5,3.4,7.44-.2,3.62-3.27,5.53-7.12,5.52H250Z" transform="translate(-58.8 -143.13)"/><path class="beb4e4b6-903f-43be-8fa2-872f673061b5" d="M249.5,452.4h58a43.7,43.7,0,0,1,5,.13c4.12.47,6.37,3,6.35,7,0,3.79-2.36,6.1-6.17,6.65a27.92,27.92,0,0,1-4,.12q-59,0-118,0c-1.65,0-3.88.42-4.85-.46-2-1.82-4.68-4.41-4.64-6.63s2.81-4.72,5-6.36c1.19-.92,3.53-.42,5.36-.43Q220.51,452.38,249.5,452.4Z" transform="translate(-58.8 -143.13)"/><path class="beb4e4b6-903f-43be-8fa2-872f673061b5" d="M149.82,457.1c-.13,12.48-10.74,22.91-23.08,22.69a23.13,23.13,0,0,1-22.55-23.22c.23-12.21,10.73-22.51,22.85-22.43A23.05,23.05,0,0,1,149.82,457.1Z" transform="translate(-58.8 -143.13)"/></svg>