<svg id="fcbe1ec2-2949-481f-b33c-6eea6c60ff7b" data-name="Capa 1" xmlns="http://www.w3.org/2000/svg" viewBox="0 0 512 512"><defs><style>.a2936753-ff99-4a1a-821a-41fb2eae8333{fill:none;}.ac5bb217-96bb-4ee0-88a7-be20ceebb9a2{fill:#173557;}</style></defs><path class="a2936753-ff99-4a1a-821a-41fb2eae8333" d="M42,676.89v-512H554v512Zm8.22-8.13H545.75V652.87H427.91c13.83-2.86,25.8-8.92,35.7-18.93,10-10.16,15.77-22.48,18-36.31a4.85,4.85,0,0,1,1.22-.46c12.5,0,25-.06,37.5-.12,15.88-.07,25.83-10,25.85-26,0-25-.12-50,.11-75,0-5.84-2.22-9.2-7.32-11.7q-27.6-13.48-54.94-27.51a24.29,24.29,0,0,1-7.86-6.53c-20.24-26.06-40.3-52.25-60.42-78.4-11.88-15.44-27.59-23-47.06-23q-43.26.06-86.52,0h-5.79c17.44-35.89,18.28-71.32,2.25-107.47l-14.22,6.73a14.41,14.41,0,0,0,.32,1.41c.31.78.66,1.53,1,2.3q19.13,47.14-5,91.93c-2.63,4.88-5.57,9.13-11.43,11a25.68,25.68,0,0,0-10.08,6.3c-6.48,6.65-12.32,13.93-18.55,20.83a18.85,18.85,0,0,1-5.67,4.62c-26.29,12.26-53.22,13.78-80.59,4.06a94.08,94.08,0,0,1-30.63-17.87h26.06V357c-13.7,0-27.16-.23-40.61.12-4.56.12-7,3.55-7.12,8.17-.11,3.83,0,7.67,0,11.5v27.79H98V388.92c31.11,22.09,64.33,28.7,101.57,20.5-10.95,14.24-21,27.51-31.32,40.51a14.45,14.45,0,0,1-7.56,4.76C137,460,113.22,465,89.46,470S50.1,494.06,50,518.49q-.1,26.5,0,53c0,15.54,10.08,25.48,25.77,25.54,11.16,0,22.33,0,33.5,0h5c6.16,30.84,24.29,49,54,56.13H50.22ZM242,196.55C186.88,156.84,118.89,170.63,81.4,211.9S43.46,309.59,62.07,344.09l13.69-6.58C51.94,284,74.3,229.3,116.22,203.82c42.27-25.68,92.83-15.34,119.35,9H210.41v16c13.36,0,26.35.06,39.33,0,4.64,0,8-2.64,8.11-7.18.35-13.44.13-26.9.13-40.46H242Zm112.11-23.7c-4.69,0-7.65,3.24-8.08,8.92-1.34,17.82-13.36,29.79-31.17,31-5.53.39-8.88,3.52-8.77,8.21.1,4.47,3.38,7.44,8.65,7.82,17.9,1.31,30,13.27,31.28,30.93.42,5.73,3.29,9,8,9s7.13-3.41,8.23-8.88c1.16-5.76,2.59-11.83,5.54-16.78,5.68-9.51,14.93-13.8,26-14.34,5.09-.25,8.41-3.7,8.29-8.16s-3.31-7.37-8.17-7.8c-1.65-.15-3.33-.16-5-.47-15.45-2.91-25.69-14.58-26.82-30.49C361.7,176.17,358.8,172.89,354.14,172.85Zm143.85,0c-4.51.09-7.44,3.29-7.87,8.62-1.49,18.34-13.14,30-31.38,31.36-5.25.39-8.5,3.38-8.57,7.89s3.18,7.69,8.35,8.12c18.79,1.55,30,12.71,31.61,31.63.46,5.19,3.6,8.42,8.13,8.33,4.31-.07,7.4-3.26,7.86-8.11,1.84-19.44,12.42-30,31.89-31.87,4.82-.46,8-3.58,8.09-7.88a7.73,7.73,0,0,0-7.87-8A32.61,32.61,0,0,1,506,180.69,7.69,7.69,0,0,0,498,172.85ZM450.34,252.9a7.65,7.65,0,0,0-8.11,7.75A32.59,32.59,0,0,1,410.09,293a7.93,7.93,0,1,0,.05,15.85,32.46,32.46,0,0,1,32,31.84c.14,5,3.38,8.07,7.71,8.2,4.49.13,7.67-3.17,8.26-8.24a43.52,43.52,0,0,1,1.77-9.77c5-13.84,15.11-21,29.72-22,5.17-.35,8.48-3.56,8.45-8,0-4.15-3.07-7.9-7.49-7.83-16.89.23-32.46-13.89-32.58-32.42A7.66,7.66,0,0,0,450.34,252.9ZM202.89,241.31l-42.42,84.77L136.28,296l-12.46,9.92c10.23,12.83,20.16,25.3,30.11,37.77,6.19,7.75,12.15,7,16.67-2q11.4-22.77,22.78-45.54c7.87-15.76,15.72-31.53,23.78-47.7Z" transform="translate(-42 -164.89)"/><path class="ac5bb217-96bb-4ee0-88a7-be20ceebb9a2" d="M50.22,668.76V653.19H168.3c-29.74-7.16-47.87-25.29-54-56.13h-5c-11.17,0-22.34,0-33.5,0C60.07,597,50,587.05,50,571.51q-.08-26.52,0-53c.11-24.43,15.66-43.42,39.47-48.46s47.52-10,71.22-15.34a14.45,14.45,0,0,0,7.56-4.76c10.35-13,20.37-26.27,31.32-40.51C162.32,417.62,129.1,411,98,388.92v15.65H82V376.78c0-3.83-.07-7.67,0-11.5.13-4.62,2.56-8,7.12-8.17,13.45-.35,26.91-.12,40.61-.12v15.79H103.7a94.08,94.08,0,0,0,30.63,17.87c27.37,9.72,54.3,8.2,80.59-4.06a18.85,18.85,0,0,0,5.67-4.62c6.23-6.9,12.07-14.18,18.55-20.83a25.68,25.68,0,0,1,10.08-6.3c5.86-1.9,8.8-6.15,11.43-11q24.14-44.78,5-91.93c-.31-.77-.66-1.52-1-2.3a14.41,14.41,0,0,1-.32-1.41l14.22-6.73c16,36.15,15.19,71.58-2.25,107.47h5.79q43.26,0,86.52,0c19.47,0,35.18,7.56,47.06,23,20.12,26.15,40.18,52.34,60.42,78.4a24.29,24.29,0,0,0,7.86,6.53q27.33,14,54.94,27.51c5.1,2.5,7.37,5.86,7.32,11.7-.23,25-.08,50-.11,75,0,15.94-10,25.91-25.85,26-12.5.06-25,.07-37.5.12a4.85,4.85,0,0,0-1.22.46c-2.19,13.83-7.93,26.15-18,36.31-9.9,10-21.87,16.07-35.7,18.93H545.75v15.89ZM530.1,565.59a8.23,8.23,0,0,0-1.44-.48l-19.5-.07c-8.48,0-11-2.54-11-11,0-22.51-.09-45,.08-67.53,0-3.54-1.1-5.32-4.28-6.76q-10.45-4.77-20.53-10.31a24.91,24.91,0,0,1-7.57-6.21q-31.43-40.47-62.52-81.2c-8.84-11.54-20.36-17.18-34.89-17.14q-46.26.15-92.51,0c-14.74-.06-26.33,5.69-35.27,17.39-20.35,26.61-40.94,53-61.16,79.72a20.31,20.31,0,0,1-13.06,8.07c-24.93,5.14-49.81,10.52-74.69,15.9-8.78,1.9-15.7,6.55-21,15,6.24,0,11.67,0,17.11,0,7.2,0,10,2.82,10.09,9.91,0,9.17,0,18.34,0,27.51,0,7.84-2.7,10.56-10.44,10.59-7.1,0-14.19,0-21.54,0,0,8.49-.15,16.31.06,24.12.13,4.82,3.44,7.73,8.56,7.85,5.67.14,11.34,0,17,0h22.72c5.93-34.8,32.25-53.74,58.74-55.83a61.53,61.53,0,0,1,38.19,9.22c17.25,10.74,27.05,26.55,30.32,46.34H354.35c7.16-39,37.69-55.14,61.63-55.7a62.82,62.82,0,0,1,39.38,12c14.9,10.81,23.36,25.61,26.32,43.89,13.78,0,27.26.15,40.74-.08,4.61-.07,7.24-3.09,7.64-7.7C530.28,570.75,530.1,568.25,530.1,565.59ZM241.74,597.27c-6.11,30.47-24.08,48.8-54.66,55.49H408.24c-13.83-2.8-25.79-8.88-35.68-18.89s-15.76-22.45-18-36.6ZM130,589.19A48,48,0,1,0,177.87,541,48.2,48.2,0,0,0,130,589.19ZM418.1,541a48,48,0,1,0,48,48A48.17,48.17,0,0,0,418.1,541Zm112,7.77c0-16.37,0-32.15-.07-47.94,0-1.25-.71-3.1-1.67-3.65-4.42-2.5-9-4.65-13.91-7.08V548.8ZM81.75,517.34H66.36v15.43H81.75Z" transform="translate(-42 -164.89)"/><path class="ac5bb217-96bb-4ee0-88a7-be20ceebb9a2" d="M242,196.55V181.14h16c0,13.56.22,27-.13,40.46-.11,4.54-3.47,7.15-8.11,7.18-13,.1-26,0-39.33,0v-16h25.16c-26.52-24.38-77.08-34.72-119.35-9C74.3,229.3,51.94,284,75.76,337.51l-13.69,6.58C43.46,309.59,43.86,253.22,81.4,211.9S186.88,156.84,242,196.55Z" transform="translate(-42 -164.89)"/><path class="ac5bb217-96bb-4ee0-88a7-be20ceebb9a2" d="M354.14,172.85c4.66,0,7.56,3.32,8,9,1.13,15.91,11.37,27.58,26.82,30.49,1.63.31,3.31.32,5,.47,4.86.43,8.05,3.48,8.17,7.8s-3.2,7.91-8.29,8.16c-11,.54-20.29,4.83-26,14.34-3,5-4.38,11-5.54,16.78-1.1,5.47-3.58,8.92-8.23,8.88s-7.55-3.29-8-9c-1.28-17.66-13.38-29.62-31.28-30.93-5.27-.38-8.55-3.35-8.65-7.82-.11-4.69,3.24-7.82,8.77-8.21,17.81-1.26,29.83-13.23,31.17-31C346.49,176.09,349.45,172.82,354.14,172.85Zm-10.93,47.86,10.85,11.21L365.19,221,354,209.7Z" transform="translate(-42 -164.89)"/><path class="ac5bb217-96bb-4ee0-88a7-be20ceebb9a2" d="M498,172.85a7.69,7.69,0,0,1,8,7.84,32.61,32.61,0,0,0,32.2,32.23,7.73,7.73,0,0,1,7.87,8c-.06,4.3-3.27,7.42-8.09,7.88-19.47,1.85-30.05,12.43-31.89,31.87-.46,4.85-3.55,8-7.86,8.11-4.53.09-7.67-3.14-8.13-8.33-1.66-18.92-12.82-30.08-31.61-31.63-5.17-.43-8.43-3.6-8.35-8.12s3.32-7.5,8.57-7.89c18.24-1.37,29.89-13,31.38-31.36C490.55,176.14,493.48,172.94,498,172.85Zm.14,59.22,10.95-11c-3.52-3.66-7.62-7.92-10.95-11.36l-11,11.13Z" transform="translate(-42 -164.89)"/><path class="ac5bb217-96bb-4ee0-88a7-be20ceebb9a2" d="M450.34,252.9a7.66,7.66,0,0,1,7.67,7.7c.12,18.53,15.69,32.65,32.58,32.42,4.42-.07,7.47,3.68,7.49,7.83,0,4.47-3.28,7.68-8.45,8-14.61,1-24.73,8.12-29.72,22a43.52,43.52,0,0,0-1.77,9.77c-.59,5.07-3.77,8.37-8.26,8.24-4.33-.13-7.57-3.25-7.71-8.2a32.46,32.46,0,0,0-32-31.84,7.93,7.93,0,1,1-.05-15.85,32.59,32.59,0,0,0,32.14-32.31A7.65,7.65,0,0,1,450.34,252.9Zm-.61,59,11.48-10.53L450.35,289.9l-11.07,10.77Z" transform="translate(-42 -164.89)"/><path class="ac5bb217-96bb-4ee0-88a7-be20ceebb9a2" d="M202.89,241.31l14.27,7.1c-8.06,16.17-15.91,31.94-23.78,47.7Q182,318.9,170.6,341.65c-4.52,9-10.48,9.75-16.67,2-10-12.47-19.88-24.94-30.11-37.77L136.28,296l24.19,30.12Z" transform="translate(-42 -164.89)"/><path class="a2936753-ff99-4a1a-821a-41fb2eae8333" d="M530.1,565.59c0,2.66.18,5.16,0,7.63-.4,4.61-3,7.63-7.64,7.7-13.48.23-27,.08-40.74.08-3-18.28-11.42-33.08-26.32-43.89a62.82,62.82,0,0,0-39.38-12c-23.94.56-54.47,16.73-61.63,55.7H241.6c-3.27-19.79-13.07-35.6-30.32-46.34a61.53,61.53,0,0,0-38.19-9.22c-26.49,2.09-52.81,21-58.74,55.83H91.63c-5.66,0-11.33.09-17,0-5.12-.12-8.43-3-8.56-7.85C65.86,565.34,66,557.52,66,549c7.35,0,14.44,0,21.54,0C95.29,549,98,546.27,98,538.43c0-9.17,0-18.34,0-27.51,0-7.09-2.89-9.87-10.09-9.91-5.44,0-10.87,0-17.11,0,5.26-8.49,12.18-13.14,21-15,24.88-5.38,49.76-10.76,74.69-15.9A20.31,20.31,0,0,0,179.49,462c20.22-26.69,40.81-53.11,61.16-79.72,8.94-11.7,20.53-17.45,35.27-17.39q46.26.19,92.51,0c14.53,0,26.05,5.6,34.89,17.14q31.13,40.7,62.52,81.2a24.91,24.91,0,0,0,7.57,6.21q10.05,5.55,20.53,10.31c3.18,1.44,4.31,3.22,4.28,6.76-.17,22.51-.1,45-.08,67.53,0,8.46,2.54,11,11,11l19.5.07A8.23,8.23,0,0,1,530.1,565.59ZM322,477q55.21,0,110.44,0c3.81,0,7.5-.86,8.57-4.57.76-2.64.48-6.54-1-8.72q-24-35-48.65-69.61C385,385.23,376,381,365.15,381q-43.22-.1-86.45,0a34.89,34.89,0,0,0-8.85,1.26,30.77,30.77,0,0,0-17.55,12.46c-16.07,22.9-32.21,45.75-48,68.84-1.56,2.28-2.1,6.78-.88,9s5.22,3.13,8.11,4.35c1,.42,2.3.07,3.47.07Zm7.89,16.37H298.46v15.39h31.39Zm80.48,15.3h31.38V493.26H410.33Z" transform="translate(-42 -164.89)"/><path class="a2936753-ff99-4a1a-821a-41fb2eae8333" d="M241.74,597.27H354.58c2.22,14.15,8,26.47,18,36.6s21.85,16.09,35.68,18.89H187.08C217.66,646.07,235.63,627.74,241.74,597.27Z" transform="translate(-42 -164.89)"/><path class="a2936753-ff99-4a1a-821a-41fb2eae8333" d="M130,589.19a48,48,0,1,1,48.15,47.88A48.18,48.18,0,0,1,130,589.19Zm48.18-32.13A32,32,0,1,0,210,589.35,32.06,32.06,0,0,0,178.19,557.06Z" transform="translate(-42 -164.89)"/><path class="a2936753-ff99-4a1a-821a-41fb2eae8333" d="M418.1,541a48,48,0,1,1-48,48A48.17,48.17,0,0,1,418.1,541Zm-.11,80a32,32,0,1,0-31.87-32.24A32.13,32.13,0,0,0,418,621.05Z" transform="translate(-42 -164.89)"/><path class="a2936753-ff99-4a1a-821a-41fb2eae8333" d="M530.14,548.8H514.49V490.13c4.86,2.43,9.49,4.58,13.91,7.08,1,.55,1.66,2.4,1.67,3.65C530.18,516.65,530.14,532.43,530.14,548.8Z" transform="translate(-42 -164.89)"/><path class="a2936753-ff99-4a1a-821a-41fb2eae8333" d="M81.75,517.34v15.43H66.36V517.34Z" transform="translate(-42 -164.89)"/><path class="a2936753-ff99-4a1a-821a-41fb2eae8333" d="M343.21,220.71l10.76-11L365.19,221l-11.13,10.9Z" transform="translate(-42 -164.89)"/><path class="a2936753-ff99-4a1a-821a-41fb2eae8333" d="M498.13,232.07l-11-11.25,11-11.13c3.33,3.44,7.43,7.7,10.95,11.36Z" transform="translate(-42 -164.89)"/><path class="a2936753-ff99-4a1a-821a-41fb2eae8333" d="M449.73,311.89l-10.45-11.22,11.07-10.77,10.86,11.46Z" transform="translate(-42 -164.89)"/><path class="ac5bb217-96bb-4ee0-88a7-be20ceebb9a2" d="M322,477H215c-1.17,0-2.48.35-3.47-.07-2.89-1.22-6.87-2.08-8.11-4.35s-.68-6.74.88-9c15.78-23.09,31.92-45.94,48-68.84a30.77,30.77,0,0,1,17.55-12.46A34.89,34.89,0,0,1,278.7,381q43.23-.14,86.45,0c10.85,0,19.86,4.27,26.16,13.15Q415.9,428.73,440,463.72c1.49,2.18,1.77,6.08,1,8.72-1.07,3.71-4.76,4.58-8.57,4.57Q377.18,476.93,322,477Zm-8.14-80c-11.2,0-22.15.16-33.1-.06-7.15-.14-12.39,2.6-16.44,8.48-11.83,17.13-23.85,34.13-35.78,51.19-.88,1.25-1.66,2.58-2.61,4.05h87.93ZM418.6,460.75c-11-15.68-21.47-30.49-31.8-45.41-13.93-20.15-11.63-18.41-35.71-18.4H330.48v63.81Z" transform="translate(-42 -164.89)"/><path class="ac5bb217-96bb-4ee0-88a7-be20ceebb9a2" d="M329.85,493.35v15.39H298.46V493.35Z" transform="translate(-42 -164.89)"/><path class="ac5bb217-96bb-4ee0-88a7-be20ceebb9a2" d="M410.33,508.65V493.26h31.38v15.39Z" transform="translate(-42 -164.89)"/><path class="ac5bb217-96bb-4ee0-88a7-be20ceebb9a2" d="M178.19,557.06A32,32,0,1,1,146,589,32.1,32.1,0,0,1,178.19,557.06Zm0,16a16,16,0,1,0,15.83,16A16.07,16.07,0,0,0,178.17,573.05Z" transform="translate(-42 -164.89)"/><path class="ac5bb217-96bb-4ee0-88a7-be20ceebb9a2" d="M418,621.05a32,32,0,1,1,32.11-32A32.1,32.1,0,0,1,418,621.05Zm16.09-31.93a16,16,0,1,0-15.94,15.93A16.1,16.1,0,0,0,434.08,589.12Z" transform="translate(-42 -164.89)"/><path class="a2936753-ff99-4a1a-821a-41fb2eae8333" d="M313.82,396.94V460.6H225.89c1-1.47,1.73-2.8,2.61-4.05,11.93-17.06,23.95-34.06,35.78-51.19,4.05-5.88,9.29-8.62,16.44-8.48C291.67,397.1,302.62,396.94,313.82,396.94Z" transform="translate(-42 -164.89)"/><path class="a2936753-ff99-4a1a-821a-41fb2eae8333" d="M418.6,460.75H330.48V396.94h20.61c24.08,0,21.78-1.75,35.71,18.4C397.13,430.26,407.61,445.07,418.6,460.75Z" transform="translate(-42 -164.89)"/><path class="a2936753-ff99-4a1a-821a-41fb2eae8333" d="M178.17,573.05A16,16,0,1,1,162,588.76,16.1,16.1,0,0,1,178.17,573.05Z" transform="translate(-42 -164.89)"/><path class="a2936753-ff99-4a1a-821a-41fb2eae8333" d="M434.08,589.12a16,16,0,1,1-15.78-16.07A16.14,16.14,0,0,1,434.08,589.12Z" transform="translate(-42 -164.89)"/></svg>