<svg id="bc3e1d4d-b520-4922-b235-201ff71b4d43" data-name="Capa 3" xmlns="http://www.w3.org/2000/svg" viewBox="0 0 122 134.47"><defs><style>.e55a580f-f044-419c-bec0-1568afee9c6c{fill:#173557;stroke:#fff;stroke-miterlimit:10;stroke-width:2px;}.be7360b0-2d92-4b4d-91c8-96d5582ffaad,.e55a580f-f044-419c-bec0-1568afee9c6c{fill-rule:evenodd;}.be7360b0-2d92-4b4d-91c8-96d5582ffaad{fill:#fff;}</style></defs><path class="e55a580f-f044-419c-bec0-1568afee9c6c" d="M420.78,529.47a5.55,5.55,0,0,1,1.35.12,4.47,4.47,0,0,1,1.26.47l18.09,9.57s32.93,18.51,35.62,20.63a9.12,9.12,0,0,1,3.18,5.23s.76,59.25.1,62.65a7.14,7.14,0,0,1-3.14,4.76s-52,27.77-53.81,28.47l-.32.12a7,7,0,0,1-5.2-.1l0,0c-1.75-.76-53.81-28.47-53.81-28.47a7.14,7.14,0,0,1-3.14-4.76c-.67-3.4.1-62.65.1-62.65a9.12,9.12,0,0,1,3.18-5.23c2.68-2.12,35.62-20.63,35.62-20.63l18.09-9.57a4.35,4.35,0,0,1,1.26-.47,5.55,5.55,0,0,1,1.35-.12Z" transform="translate(-359.65 -528.47)"/><path class="be7360b0-2d92-4b4d-91c8-96d5582ffaad" d="M409.2,570.79a15.26,15.26,0,0,0-3.77,5.9,16.55,16.55,0,0,0-.05,10.92,15.46,15.46,0,0,0,3.75,6.15c1.6,1.66,2.22,2,2.71,1.64s.31-1-.71-1.91a15.42,15.42,0,0,1-3.55-4.84,12.75,12.75,0,0,1-1.36-6.45,11.9,11.9,0,0,1,1.56-6.62,11,11,0,0,1,2.64-3.66c1.64-1.73,1.93-2.24,1.47-2.7S410.91,569,409.2,570.79Z" transform="translate(-359.65 -528.47)"/><path class="be7360b0-2d92-4b4d-91c8-96d5582ffaad" d="M418.87,569.21a13.34,13.34,0,0,0-11,14.36,13.15,13.15,0,0,0,7.39,10.65,13.19,13.19,0,0,0,15.2-2.63,12.88,12.88,0,0,0,3.18-13.48,13.34,13.34,0,0,0-9.28-8.67A17.63,17.63,0,0,0,418.87,569.21Zm5,1.8a11.88,11.88,0,0,1,8.56,8.55,14.8,14.8,0,0,1,0,5.55,12.37,12.37,0,0,1-5.86,7.43,11.47,11.47,0,0,1-15.89-5.24,10.09,10.09,0,0,1-1.15-5,10.63,10.63,0,0,1,1.07-4.93A11.61,11.61,0,0,1,423.83,571Z" transform="translate(-359.65 -528.47)"/><path class="be7360b0-2d92-4b4d-91c8-96d5582ffaad" d="M417.05,574.08c-.1.24-.18,3.15-.18,8.21s.08,8,.18,8.21a.93.93,0,0,0,1.28.17c.22-.13.29-.77.33-3.44l0-3.26,2.22-.08c2.57-.07,3.21-.3,4.44-1.63a4.38,4.38,0,0,0,1.22-3.43,4.78,4.78,0,0,0-2.84-4.53c-1.09-.54-1.16-.56-3.8-.56C417.47,573.74,417.24,573.77,417.05,574.08Zm6.28,1.9a3.49,3.49,0,0,1,.11,5.77c-.6.4-.89.45-2.73.51l-2,.07v-7l2,.07C422.42,575.47,422.68,575.52,423.33,576Z" transform="translate(-359.65 -528.47)"/><path class="be7360b0-2d92-4b4d-91c8-96d5582ffaad" d="M430.46,569.21c-.62.34-.35.91,1.18,2.51a19.53,19.53,0,0,1,2.31,2.89,15.24,15.24,0,0,1,2,9.45,14.93,14.93,0,0,1-4.32,8.81c-1.47,1.53-1.74,2-1.29,2.49s.86.22,2.06-.89a17.7,17.7,0,0,0,4.86-8.1,19.14,19.14,0,0,0-.09-8.28,16.32,16.32,0,0,0-4.54-7.74C431.42,569.15,431,568.91,430.46,569.21Z" transform="translate(-359.65 -528.47)"/><path class="be7360b0-2d92-4b4d-91c8-96d5582ffaad" d="M406.4,602.55l-.48.13V612h1.63v-1.45a3.28,3.28,0,0,1,.16-1.46,12.38,12.38,0,0,1,1.37,1.55,9.43,9.43,0,0,0,1.38,1.55,3.25,3.25,0,0,0,1.33-.77,9,9,0,0,0-1-1.27c-.56-.64-1.14-1.29-1.27-1.48s-.15-.43,1-1.51L411.7,606l-.48-.35a1.78,1.78,0,0,0-.68-.36,10.36,10.36,0,0,0-1.58,1.31l-1.41,1.31v-2.77C407.55,602.13,407.59,602.24,406.4,602.55Z" transform="translate(-359.65 -528.47)"/><path class="be7360b0-2d92-4b4d-91c8-96d5582ffaad" d="M434.41,602.48c-.55.11-.55.13-.6,1.49l-.06,1.37-1-.08a2,2,0,0,0-2.31,1.35,7.66,7.66,0,0,0,0,4.3,2.17,2.17,0,0,0,3.18.87c.46-.27.59-.31.59-.09,0,.42.32.49,1,.24.52-.19.62-.3.51-.61s-.17-2.31-.2-4.69c-.08-3.1-.15-4.32-.31-4.3Zm-.67,6c.05,2.06-.08,2.37-1,2.37-.69,0-1-.66-1-2.18,0-1.75.27-2.22,1.24-2.15l.67.05Z" transform="translate(-359.65 -528.47)"/><path class="be7360b0-2d92-4b4d-91c8-96d5582ffaad" d="M442.88,603.06c-1.29.64-1.93,2.37-1.8,5,.09,2,.62,3.17,1.71,3.79a4.52,4.52,0,0,0,3.68.05l.76-.34V607.3h-2.91v.64a.64.64,0,0,0,.64.64h.64v2.18h-.79c-1,0-1.47-.45-1.78-1.69a8.17,8.17,0,0,1,.27-4.08c.44-.86,1.19-1.07,2.31-.71a3.61,3.61,0,0,0,1,.26,3.55,3.55,0,0,0,.45-1.06C447.05,602.81,444,602.5,442.88,603.06Z" transform="translate(-359.65 -528.47)"/><path class="be7360b0-2d92-4b4d-91c8-96d5582ffaad" d="M387.9,607.48V612h1.63v-3.58l1-.11a2.76,2.76,0,0,0,2.73-2.62,3.09,3.09,0,0,0-.2-1.57c-.4-1-1.11-1.22-3.38-1.22H387.9Zm3.38-2.89a1.37,1.37,0,0,1,.26.91,1.28,1.28,0,0,1-1.37,1.44h-.64V605.7a3.7,3.7,0,0,1,.15-1.38C389.84,604.13,391,604.32,391.28,604.59Z" transform="translate(-359.65 -528.47)"/><path class="be7360b0-2d92-4b4d-91c8-96d5582ffaad" d="M395.18,605.43c-.58.23-.58.2-.34.87.16.44.29.57.51.47a4.23,4.23,0,0,1,1-.21c.93-.13,1.33.14,1.33.87,0,.51,0,.53-.82.53-1.74,0-2.64.76-2.64,2.24a1.64,1.64,0,0,0,.53,1.42,2.22,2.22,0,0,0,2.59.23c.51-.25.58-.25.8,0s.29.29.78.09l.55-.24-.08-1.34c-.25-4.7-.21-4.5-1-4.9A6.09,6.09,0,0,0,395.18,605.43Zm2.52,4.29c0,.71-.15.91-.49,1.08a.89.89,0,0,1-1.28-1.15,1.18,1.18,0,0,1,.75-.58C397.73,608.78,397.75,608.79,397.7,609.72Z" transform="translate(-359.65 -528.47)"/><path class="be7360b0-2d92-4b4d-91c8-96d5582ffaad" d="M401.22,605.54c-.33.14-.4.29-.31.56a25.19,25.19,0,0,1,.22,3.15l.09,2.78h1.6v-2.36c0-2.31,0-2.37.46-2.66a1.26,1.26,0,0,1,.83-.2c.29.07.44,0,.64-.51.36-.91.33-1-.45-1a1.87,1.87,0,0,0-1.26.45l-.55.46-.11-.46C402.26,605.26,401.91,605.19,401.22,605.54Z" transform="translate(-359.65 -528.47)"/><path class="be7360b0-2d92-4b4d-91c8-96d5582ffaad" d="M417.39,605.35c-.6.22-.71.42-.51,1,.15.4.27.51.49.43a4.33,4.33,0,0,1,1.06-.21c.93-.13,1.33.14,1.33.87,0,.51,0,.53-.84.53-1.58,0-2.62.85-2.62,2.18a2,2,0,0,0,3.24,1.64c.49-.29.58-.31.58-.09,0,.44.46.51,1.08.2s.52-.35.38-.77a10.3,10.3,0,0,1-.18-2.36c0-2.06-.26-3-.88-3.33A8.61,8.61,0,0,0,417.39,605.35Zm2.33,4.37c0,.71-.13.91-.51,1.1a.66.66,0,0,1-.82,0,1.09,1.09,0,0,1-.29-1.35,2.84,2.84,0,0,1,1.53-.56C419.7,608.87,419.76,609.25,419.72,609.72Z" transform="translate(-359.65 -528.47)"/><path class="be7360b0-2d92-4b4d-91c8-96d5582ffaad" d="M423.32,605.43c-.3.07-.33.2-.22.91,0,.45.11,1.93.11,3.26V612h1.64V609.6c0-2.59,0-2.72.92-2.94s1.08.2,1.08,2.94V612h1.64V609.3c0-3.6-.19-4-1.86-4a3.12,3.12,0,0,0-1.35.36l-.58.39-.13-.39C424.46,605.3,424.08,605.23,423.32,605.43Z" transform="translate(-359.65 -528.47)"/><path class="be7360b0-2d92-4b4d-91c8-96d5582ffaad" d="M450,605.59c-1.88,1.13-1.79,5.28.12,6.23a3.07,3.07,0,0,0,2.74,0c1.89-1,2-5.08.14-6.21A3.3,3.3,0,0,0,450,605.59Zm2.24,1.37a3.27,3.27,0,0,1,.31,1.73c0,1.43-.35,2.18-1,2.18s-1.09-.6-1.11-2.18c0-1.15.07-1.5.34-1.81A.89.89,0,0,1,452.27,607Z" transform="translate(-359.65 -528.47)"/><path class="be7360b0-2d92-4b4d-91c8-96d5582ffaad" d="M387,617.37a2.33,2.33,0,1,0,1.64,4.33c.31-.16.55-.36.55-.45s-.11-.24-.77.1a1.84,1.84,0,0,1-2.22-.45,1.92,1.92,0,0,1,.71-3.1c.49-.23,1-.16,2.06.28.11,0,.22,0,.22-.11C389.18,617.55,387.69,617.13,387,617.37Z" transform="translate(-359.65 -528.47)"/><path class="be7360b0-2d92-4b4d-91c8-96d5582ffaad" d="M391.29,618.26c-.24.53-.73,1.6-1.07,2.37s-.57,1.42-.42,1.42.36-.3.52-.64l.31-.64h2.55l.31.64c.17.34.4.64.53.64s-1.75-4.59-2.08-4.7C391.82,617.31,391.54,617.7,391.29,618.26Zm1.18.75c.24.58.48,1.11.49,1.18s-.43.14-1,.14-1.09-.07-1.06-.14.26-.6.49-1.18a4.11,4.11,0,0,1,.57-1A4.25,4.25,0,0,1,392.47,619Z" transform="translate(-359.65 -528.47)"/><path class="be7360b0-2d92-4b4d-91c8-96d5582ffaad" d="M395,619.66a6.73,6.73,0,0,0,.19,2.39c.11,0,.18-.33.18-.73v-.73h.89c.82,0,.91,0,1.36.73.26.4.61.73.75.73s.13-.22-.27-.77c-.57-.76-.57-.76-.18-1a1.77,1.77,0,0,0,.45-2c-.27-.66-.54-.79-2.13-.91l-1.24-.11Zm2.77-1.49a1.13,1.13,0,0,1,0,1.55c-.22.23-.57.32-1.37.32h-1.05v-1a3,3,0,0,1,.14-1.2A3.59,3.59,0,0,1,397.76,618.17Z" transform="translate(-359.65 -528.47)"/><path class="be7360b0-2d92-4b4d-91c8-96d5582ffaad" d="M399.91,619.61a6.79,6.79,0,0,0,.18,2.36c.11,0,.18-.31.18-.71v-.69l1.06-.13c1.25-.14,1.78-.47,1.95-1.2.27-1.22-.68-2-2.5-2l-.87,0Zm2.55-1.57c.25.13.36.38.36.82,0,.89-.38,1.18-1.56,1.18h-1v-2.42l.91.11A4.85,4.85,0,0,1,402.46,618Z" transform="translate(-359.65 -528.47)"/><path class="be7360b0-2d92-4b4d-91c8-96d5582ffaad" d="M405.67,617.46a23.58,23.58,0,0,0-1.86,4.59c.13,0,.37-.3.53-.64l.31-.64h2.57l.27.64c.14.34.38.64.51.64s0-.7-.78-2.32C406.22,617.53,405.91,617.08,405.67,617.46Zm.84,1.66.47,1.12-1,.06a4.3,4.3,0,0,1-1.08,0,9,9,0,0,1,1-2.31A5.19,5.19,0,0,1,406.51,619.12Z" transform="translate(-359.65 -528.47)"/><path class="be7360b0-2d92-4b4d-91c8-96d5582ffaad" d="M409,619.68a6.83,6.83,0,0,0,.18,2.37c.11,0,.18-.33.18-.73v-.73h.9c.81,0,.91,0,1.36.73.26.4.56.73.66.73.27,0,.21-.13-.28-.86l-.43-.66.43-.41a1.88,1.88,0,0,0,.22-2.15,3.72,3.72,0,0,0-2.44-.66H409Zm2.77-1.51a1.14,1.14,0,0,1,0,1.55c-.21.23-.56.32-1.36.32h-1.06v-1a2.93,2.93,0,0,1,.15-1.2A3.59,3.59,0,0,1,411.78,618.17Z" transform="translate(-359.65 -528.47)"/><path class="be7360b0-2d92-4b4d-91c8-96d5582ffaad" d="M413.91,619.61a6.79,6.79,0,0,0,.18,2.36c.11,0,.18-.27.18-.62,0-.56.56-1.56.89-1.56a5.29,5.29,0,0,1,1,1.09c.48.6,1,1.09,1.15,1.09s-.05-.42-.73-1.29l-1-1.31.93-1.06c1.37-1.58.66-1.31-.87.33l-1.31,1.42,0-1.42c0-.8-.07-1.4-.18-1.4A6.83,6.83,0,0,0,413.91,619.61Z" transform="translate(-359.65 -528.47)"/><path class="be7360b0-2d92-4b4d-91c8-96d5582ffaad" d="M420.3,619.61c0,2.89.33,3.22.4.4l.06-2,.89,1.67a7.57,7.57,0,0,0,1.06,1.7,9.39,9.39,0,0,0,1-1.7l.87-1.67.06,2c.07,2.82.4,2.49.4-.4s-.2-3.08-1.41-.66a5.66,5.66,0,0,1-1,1.64,11.36,11.36,0,0,1-1-1.73C420.5,616.55,420.3,616.66,420.3,619.61Z" transform="translate(-359.65 -528.47)"/><path class="be7360b0-2d92-4b4d-91c8-96d5582ffaad" d="M427.66,618c-.15.36-.6,1.36-1,2.22-.77,1.66-.82,1.86-.51,1.86.09,0,.31-.3.45-.64l.26-.64h2.54l.31.64c.4.85.88.89.51,0a20.34,20.34,0,0,0-2.09-4.13C428,617.31,427.8,617.6,427.66,618Zm1.07,1.13a4.57,4.57,0,0,1,.42,1.18,4.24,4.24,0,0,1-1.07,0l-1-.06.48-1.12a4.38,4.38,0,0,1,.6-1.15A4.4,4.4,0,0,1,428.73,619.1Z" transform="translate(-359.65 -528.47)"/><path class="be7360b0-2d92-4b4d-91c8-96d5582ffaad" d="M431.22,619.68v2.37h1.27c.73,0,1.27-.08,1.27-.19s-.45-.18-1-.18h-1V619.5c0-1.82,0-2.19-.27-2.19S431.22,617.7,431.22,619.68Z" transform="translate(-359.65 -528.47)"/><path class="be7360b0-2d92-4b4d-91c8-96d5582ffaad" d="M434.67,619.68v2.37H436c1.53,0,1.71-.33.23-.41l-1.05,0-.06-2.15C435,616.49,434.67,616.68,434.67,619.68Z" transform="translate(-359.65 -528.47)"/><path class="be7360b0-2d92-4b4d-91c8-96d5582ffaad" d="M439.07,617.57a2.31,2.31,0,0,0,1.07,4.4,2.57,2.57,0,0,0,2.37-2.36,2.36,2.36,0,0,0-1.35-2A1.93,1.93,0,0,0,439.07,617.57Zm1.69.29a1.86,1.86,0,0,1,.68,3.06,1.44,1.44,0,0,1-1.39.6,1.41,1.41,0,0,1-1.38-.6,1.85,1.85,0,0,1,.56-3C440,617.53,440,617.53,440.76,617.86Z" transform="translate(-359.65 -528.47)"/><path class="be7360b0-2d92-4b4d-91c8-96d5582ffaad" d="M443.59,619.68a6.66,6.66,0,0,0,.19,2.37c.1,0,.18-.33.18-.71v-.71l.83-.08c.81,0,.84,0,1.32.71.58.93,1.16,1.13.63.22a4.62,4.62,0,0,0-.54-.75c-.19-.14-.11-.3.31-.69a1.44,1.44,0,0,0-.7-2.55,7.26,7.26,0,0,0-1.43-.18h-.79Zm2-1.82c.78.22,1.11.69.95,1.36s-.58.82-1.69.82H444v-1.18c0-1.16,0-1.18.51-1.18A6.1,6.1,0,0,1,445.63,617.86Z" transform="translate(-359.65 -528.47)"/><path class="be7360b0-2d92-4b4d-91c8-96d5582ffaad" d="M449.34,617.5a2,2,0,0,0-1.33,2,1.57,1.57,0,0,0,.52,1.65,2.36,2.36,0,0,0,2.79.57c.95-.4.67-.68-.31-.33a1.45,1.45,0,0,1-1.4,0,2.28,2.28,0,0,1-1.28-1.82,2,2,0,0,1,2.75-1.75c.35.16.66.24.75.15s-.93-.77-1.53-.77A4,4,0,0,0,449.34,617.5Z" transform="translate(-359.65 -528.47)"/><path class="be7360b0-2d92-4b4d-91c8-96d5582ffaad" d="M453.43,619.53c-.54,1.22-1,2.28-1.05,2.37s.05.15.2.15.38-.3.49-.64l.22-.64h2.62l.31.64c.25.54.67.87.67.54a28.6,28.6,0,0,0-2.26-4.64A9.45,9.45,0,0,0,453.43,619.53Zm1.75-.56a7.88,7.88,0,0,1,.44,1.18c0,.11-.46.18-1,.18s-1-.07-1-.16a10.2,10.2,0,0,1,1-2.2A4.16,4.16,0,0,1,455.18,619Z" transform="translate(-359.65 -528.47)"/></svg>