<svg xmlns="http://www.w3.org/2000/svg" viewBox="0 0 841.89 763.51"><defs><style>.ae3da709-17ef-414f-ab8d-04abf67e197e{fill:#fff;}.ae3da709-17ef-414f-ab8d-04abf67e197e,.bf8bc484-66c6-4c10-907b-b46243515506{fill-rule:evenodd;}</style></defs><g id="b191b611-9e84-46e2-8a5b-96b2fe0333a0" data-name="Capa 4"><rect width="841.89" height="763.51"/></g><g id="fbbd2843-249d-409f-ab86-cbf0cf6880a3" data-name="Capa 2"><path class="ae3da709-17ef-414f-ab8d-04abf67e197e" d="M421.65,231.4a31.52,31.52,0,0,1,7.42.65,24,24,0,0,1,6.93,2.6l99.37,52.59s181,101.69,195.72,113.33,17.46,28.73,17.46,28.73,4.19,325.48.53,344.16-17.24,26.18-17.24,26.18S446,952.22,436.2,956c-.6.24-1.18.46-1.75.67a38.47,38.47,0,0,1-28.54-.58l-.22-.09c-9.61-4.15-295.64-156.4-295.64-156.4s-13.57-7.49-17.24-26.18.53-344.16.53-344.16S96,412.2,110.8,400.57,306.52,287.24,306.52,287.24l99.37-52.59a24,24,0,0,1,6.93-2.6,31.52,31.52,0,0,1,7.42-.65Q420.94,231.43,421.65,231.4Z" transform="translate(0 -208.54)"/></g><g id="ae57f1f3-8fec-42f3-9bba-2115b4388988" data-name="Capa 1"><path class="bf8bc484-66c6-4c10-907b-b46243515506" d="M358.05,458.4c-10.4,10.7-16.5,20.3-20.7,32.4-6.9,19.8-7,39.4-.3,60,4.1,12.7,10.4,23,20.6,33.8,8.8,9.1,12.2,11.2,14.9,9,2.9-2.4,1.7-5.7-3.9-10.5-7.4-6.4-14.8-16.5-19.5-26.6-5.9-12.5-7.5-20-7.5-35.4,0-15.7,1.4-21.8,8.6-36.4,4.3-8.8,6.5-11.9,14.5-20.1,9-9.5,10.6-12.3,8.1-14.8C370.15,447.1,367.45,448.7,358.05,458.4Z" transform="translate(0 -208.54)"/><path class="bf8bc484-66c6-4c10-907b-b46243515506" d="M411.15,449.7c-37.5,6.7-64.4,41.9-60.2,78.9,3,26.3,17.3,46.9,40.6,58.5a67.29,67.29,0,0,0,36,7.2c19.1-1,33.7-7.7,47.5-21.6,20-20.1,26.3-47.2,17.5-74.1-7.7-23.3-26.3-40.7-51-47.6C435.15,449.1,418.05,448.4,411.15,449.7Zm27.3,9.9c23,5.9,41.8,24.6,47,47,2,8.3,2,22.9.1,30.5-4.1,16.3-17.4,33.2-32.2,40.8-32.9,17.1-71.4,4.4-87.3-28.8-4.8-10-6.2-16.4-6.3-27.3,0-10.5,1.5-17.3,5.9-27.1C378.15,467.3,409.55,452.2,438.45,459.6Z" transform="translate(0 -208.54)"/><path class="bf8bc484-66c6-4c10-907b-b46243515506" d="M401.2,476.5c-.6,1.3-1,17.3-1,45.1s.4,43.8,1,45.1c1.1,2,4.5,2.5,7,.9,1.2-.7,1.6-4.2,1.8-18.9l.3-17.9,12.2-.4c14.1-.4,17.6-1.7,24.4-9,5-5.5,6.8-10.4,6.7-18.8-.1-11.4-5.3-19.8-15.6-24.9-6-3-6.4-3.1-20.9-3.1C403.5,474.6,402.2,474.8,401.2,476.5Zm34.5,10.4c11.3,7.8,11.6,24.2.6,31.7-3.3,2.2-4.9,2.5-15,2.8l-11.3.4V483.4l10.9.4C430.7,484.1,432.1,484.4,435.7,486.9Z" transform="translate(0 -208.54)"/><path class="bf8bc484-66c6-4c10-907b-b46243515506" d="M474.85,449.7c-3.4,1.9-1.9,5,6.5,13.8a112.79,112.79,0,0,1,12.7,15.9c9.1,15.3,13.3,35,11,51.9-2.4,18.8-10,34.1-23.7,48.4-8.1,8.4-9.6,11.2-7.1,13.7,2.3,2.3,4.7,1.2,11.3-4.9a96.94,96.94,0,0,0,26.7-44.5c3.2-12,3-32.5-.5-45.5a89.71,89.71,0,0,0-24.9-42.5C480.15,449.4,477.55,448.1,474.85,449.7Z" transform="translate(0 -208.54)"/><path class="bf8bc484-66c6-4c10-907b-b46243515506" d="M342.65,632.9l-2.65.7V685h9v-8c0-4.4.32-8,.85-8s3.81,3.9,7.51,8.5,7.1,8.5,7.63,8.5c1.27,0,7.3-3.4,7.3-4.2,0-.4-2.54-3.5-5.61-7s-6.24-7.1-7-8.1c-1.37-1.6-.84-2.4,5.3-8.3l6.77-6.5-2.64-1.9c-1.48-1.1-3.07-2-3.71-2s-4.45,3.3-8.68,7.2L349,662.4V647.2C349,630.6,349.21,631.2,342.65,632.9Z" transform="translate(0 -208.54)"/><path class="bf8bc484-66c6-4c10-907b-b46243515506" d="M496.55,632.5c-3,.6-3,.7-3.3,8.2l-.3,7.5-5.7-.4c-6.7-.5-9.8,1.4-12.7,7.4-2.3,4.8-2.4,18.4-.2,23.6,2.7,6.5,11,8.8,17.5,4.8,2.5-1.5,3.2-1.7,3.2-.5,0,2.3,1.8,2.7,5.6,1.3,2.9-1,3.4-1.6,2.8-3.3-.3-1.1-.9-12.7-1.1-25.8-.4-17-.8-23.7-1.7-23.6C500.05,631.8,498.25,632.1,496.55,632.5Zm-3.7,33.1c.3,11.3-.4,13-5.4,13-3.8,0-5.4-3.6-5.4-12,0-9.6,1.5-12.2,6.8-11.8l3.7.3Z" transform="translate(0 -208.54)"/><path class="bf8bc484-66c6-4c10-907b-b46243515506" d="M543.1,635.7c-7.1,3.5-10.6,13-9.9,27.2.5,11.1,3.4,17.4,9.4,20.8,5.1,2.9,14.1,3.1,20.2.3l4.2-1.9V659H551v3.5a3.5,3.5,0,0,0,3.5,3.5H558v12h-4.3c-5.4,0-8.1-2.5-9.8-9.3-1.5-6-.7-18.3,1.5-22.4,2.4-4.7,6.5-5.9,12.7-3.9,2.8,1,5.2,1.6,5.4,1.4A18.21,18.21,0,0,0,566,638C566,634.3,549.4,632.6,543.1,635.7Z" transform="translate(0 -208.54)"/><path class="bf8bc484-66c6-4c10-907b-b46243515506" d="M241,660v25h9V665.3l5.7-.6c8.9-.9,14.2-6.1,15-14.4a17.2,17.2,0,0,0-1.1-8.6c-2.2-5.3-6.1-6.7-18.6-6.7H241Zm18.6-15.9c.8.6,1.4,2.9,1.4,5,0,5-2.7,7.9-7.5,7.9H250v-6.8c0-3.8.3-7.2.8-7.6C251.7,641.6,257.8,642.6,259.6,644.1Z" transform="translate(0 -208.54)"/><path class="bf8bc484-66c6-4c10-907b-b46243515506" d="M281.05,648.7c-3.2,1.3-3.2,1.1-1.9,4.8.9,2.4,1.6,3.1,2.8,2.6a23.79,23.79,0,0,1,5.8-1.2c5.1-.7,7.3.8,7.3,4.8,0,2.8-.2,2.9-4.5,2.9-9.6,0-14.5,4.2-14.5,12.3,0,4,.5,5.3,2.9,7.8,3.4,3.4,9.2,3.9,14.2,1.3,2.8-1.4,3.2-1.4,4.4.2s1.6,1.6,4.3.5l3-1.3-.4-7.4c-1.4-25.8-1.2-24.7-5.5-26.9C295.75,647.4,284.85,647.2,281.05,648.7Zm13.8,23.6c-.2,3.9-.8,5-2.7,5.9-4.6,2.3-8.8-1.5-7-6.3.5-1.3,2.2-2.6,4.1-3.2C295.05,667.1,295.15,667.2,294.85,672.3Z" transform="translate(0 -208.54)"/><path class="bf8bc484-66c6-4c10-907b-b46243515506" d="M314.2,649.3c-1.8.8-2.2,1.6-1.7,3.1.4,1.2,1,9,1.2,17.3l.5,15.3H323V672c0-12.7,0-13,2.5-14.6a6.83,6.83,0,0,1,4.6-1.1c1.6.4,2.4-.1,3.5-2.8,2-5,1.8-5.5-2.5-5.5a10.12,10.12,0,0,0-6.9,2.5l-3,2.5-.6-2.5C319.9,647.8,318,647.4,314.2,649.3Z" transform="translate(0 -208.54)"/><path class="bf8bc484-66c6-4c10-907b-b46243515506" d="M403.05,648.3c-3.3,1.2-3.9,2.3-2.8,5.4.8,2.2,1.5,2.8,2.7,2.4a23.79,23.79,0,0,1,5.8-1.2c5.1-.7,7.3.8,7.3,4.8,0,2.8-.2,2.9-4.6,2.9-8.7,0-14.4,4.7-14.4,12,0,9.3,9.5,14.1,17.8,9,2.7-1.6,3.2-1.7,3.2-.5,0,2.4,2.5,2.8,5.9,1.1,2.7-1.4,2.9-1.9,2.1-4.2-.6-1.4-1-7.2-1-13,0-11.3-1.4-16.5-4.8-18.3C418.15,647.6,405.75,647.3,403.05,648.3Zm12.8,24c-.2,3.9-.7,5-2.8,6s-2.9,1-4.5-.1a5.9,5.9,0,0,1-1.6-7.4c.7-1.2,4.8-2.6,8.4-3.1C415.75,667.6,416.05,669.7,415.85,672.3Z" transform="translate(0 -208.54)"/><path class="bf8bc484-66c6-4c10-907b-b46243515506" d="M435.6,648.7c-1.6.4-1.8,1.1-1.2,5,.3,2.5.6,10.6.6,17.9V685h9V671.6c0-14.2.2-14.9,5.1-16.1,5.1-1.3,5.9,1.1,5.9,16.1V685h9V670c0-19.8-1-22-10.2-22a17,17,0,0,0-7.4,2l-3.2,2.1-.7-2.1C441.9,648,439.8,647.6,435.6,648.7Z" transform="translate(0 -208.54)"/><path class="bf8bc484-66c6-4c10-907b-b46243515506" d="M582.35,649.6c-10.3,6.2-9.8,29,.7,34.2a16.84,16.84,0,0,0,15-.1c10.4-5.5,10.9-27.9.8-34.1C594.45,647,586.65,646.9,582.35,649.6Zm12.3,7.5c1.2,1.8,1.7,4.7,1.7,9.5,0,7.9-1.9,12-5.7,12-4.3,0-6-3.3-6.1-12,0-6.3.4-8.2,1.9-9.9C589.05,653.8,592.65,654,594.65,657.1Z" transform="translate(0 -208.54)"/><path class="bf8bc484-66c6-4c10-907b-b46243515506" d="M236.05,714.3c-3.9,1.2-6.2,2.9-8,5.9-6.8,10.9,5.6,23.8,17,17.9,1.7-.9,3-2,3-2.5,0-1.3-.6-1.3-4.2.6-4.1,2.1-8.7,1.1-12.2-2.5-5.1-5.3-3.2-13.5,3.9-17,2.7-1.3,5.2-.9,11.3,1.5.6.3,1.2.1,1.2-.6C248.05,715.3,239.85,713,236.05,714.3Z" transform="translate(0 -208.54)"/><path class="bf8bc484-66c6-4c10-907b-b46243515506" d="M259.65,719.2c-1.3,2.9-4,8.8-5.9,13-2.3,5.1-3.1,7.8-2.3,7.8s2-1.6,2.9-3.5l1.7-3.5h14l1.7,3.5c.9,1.9,2.2,3.5,2.9,3.5,1.5,0-9.6-25.2-11.4-25.8C262.55,714,261.05,716.1,259.65,719.2Zm6.5,4.1c1.3,3.2,2.6,6.1,2.7,6.5s-2.4.8-5.8.8-6-.4-5.8-.8,1.4-3.3,2.7-6.5,2.8-5.7,3.1-5.7S264.75,720.2,266.15,723.3Z" transform="translate(0 -208.54)"/><path class="bf8bc484-66c6-4c10-907b-b46243515506" d="M280,726.9c0,8.1.4,13.1,1,13.1s1-1.8,1-4v-4h4.9c4.5,0,5,.2,7.5,4,1.4,2.2,3.3,4,4.1,4,1.1,0,.7-1.2-1.5-4.2-3.1-4.2-3.1-4.2-1-5.8,2.9-2.2,4-7,2.5-10.7s-3-4.3-11.7-5l-6.8-.6Zm15.2-8.2c2.3,2,2.3,6.1.1,8.5-1.2,1.3-3.1,1.8-7.5,1.8H282v-5.8c0-3.2.3-6.2.8-6.6C283.9,715.4,293.3,717,295.2,718.7Z" transform="translate(0 -208.54)"/><path class="bf8bc484-66c6-4c10-907b-b46243515506" d="M307,726.6c0,8,.4,13,1,13s1-1.7,1-3.9v-3.8l5.8-.7c6.9-.8,9.8-2.6,10.7-6.6,1.5-6.7-3.7-10.8-13.7-10.9l-4.8-.1Zm14-8.6c1.4.7,2,2.1,2,4.5,0,4.9-2.1,6.5-8.6,6.5H309V715.7l5,.6A25.36,25.36,0,0,1,321,718Z" transform="translate(0 -208.54)"/><path class="bf8bc484-66c6-4c10-907b-b46243515506" d="M338.65,714.8c-2.9,4.7-11.2,25.2-10.2,25.2.7,0,2-1.6,2.9-3.5l1.7-3.5h14.1l1.5,3.5c.8,1.9,2.1,3.5,2.8,3.5,1,0-.2-3.8-4.3-12.7C341.65,715.2,340,712.7,338.65,714.8Zm4.6,9.1,2.6,6.2-5.5.3c-3,.2-5.7.1-5.9-.1-.5-.5,4.8-12.7,5.5-12.7C340.25,717.6,341.75,720.4,343.25,723.9Z" transform="translate(0 -208.54)"/><path class="bf8bc484-66c6-4c10-907b-b46243515506" d="M357,727c0,8,.4,13,1,13s1-1.8,1-4v-4h4.9c4.5,0,5,.2,7.5,4,1.4,2.2,3.1,4,3.6,4,1.5,0,1.2-.7-1.5-4.7l-2.4-3.6,2.4-2.3c2.8-2.6,3.4-8.7,1.2-11.8-1.4-2-7.3-3.5-13.4-3.6H357Zm15.2-8.3c2.3,2,2.3,6.1.1,8.5-1.2,1.3-3.1,1.8-7.5,1.8H359v-5.8c0-3.2.3-6.2.8-6.6C360.9,715.4,370.3,717,372.2,718.7Z" transform="translate(0 -208.54)"/><path class="bf8bc484-66c6-4c10-907b-b46243515506" d="M383.9,726.6c0,8,.4,13,1,13s1-1.5,1-3.4c0-3.1,3.1-8.6,4.9-8.6.4,0,2.9,2.7,5.4,6s5.4,6,6.3,6-.3-2.3-4-7.1l-5.6-7.2,5.1-5.8c7.5-8.7,3.6-7.2-4.8,1.8l-7.2,7.8-.1-7.8c0-4.4-.4-7.7-1-7.7S383.9,718.6,383.9,726.6Z" transform="translate(0 -208.54)"/><path class="bf8bc484-66c6-4c10-907b-b46243515506" d="M419.05,726.6c0,15.9,1.8,17.7,2.2,2.2l.3-10.7,4.9,9.2c2.7,5.1,5.3,9.3,5.8,9.3s2.9-4.2,5.5-9.3l4.8-9.2.3,10.7c.4,15.5,2.2,13.7,2.2-2.2,0-16.4-1.1-16.9-7.7-3.6-2.6,5.2-5.1,9.2-5.5,9s-2.9-4.6-5.3-9.5C420.15,709.8,419.05,710.4,419.05,726.6Z" transform="translate(0 -208.54)"/><path class="bf8bc484-66c6-4c10-907b-b46243515506" d="M459.45,717.6c-.8,2-3.3,7.5-5.5,12.2-4.2,9.1-4.5,10.2-2.8,10.2.5,0,1.7-1.6,2.5-3.5l1.4-3.5h14l1.7,3.5c2.2,4.7,4.8,4.9,2.8.2-4.5-10.8-10.5-22.7-11.5-22.7C461.45,714,460.25,715.6,459.45,717.6Zm5.9,6.2c1.5,3.4,2.5,6.3,2.3,6.5s-2.9.3-5.9.1l-5.5-.3,2.6-6.2c1.5-3.5,3-6.3,3.3-6.3S464,720.4,465.35,723.8Z" transform="translate(0 -208.54)"/><path class="bf8bc484-66c6-4c10-907b-b46243515506" d="M479,727v13h7c4,0,7-.4,7-1s-2.5-1-5.5-1H482V726c0-10-.2-12-1.5-12S479,716.1,479,727Z" transform="translate(0 -208.54)"/><path class="bf8bc484-66c6-4c10-907b-b46243515506" d="M498,727v13h7c8.4,0,9.4-1.8,1.3-2.2l-5.8-.3-.3-11.8C499.8,709.5,498,710.5,498,727Z" transform="translate(0 -208.54)"/><path class="bf8bc484-66c6-4c10-907b-b46243515506" d="M522.15,715.4c-12.5,6.3-8.1,24.2,5.9,24.2,6.4,0,13-6.6,13-13a13.07,13.07,0,0,0-7.4-11.1C528.55,713.2,526.45,713.2,522.15,715.4Zm9.3,1.6c7.1,3,8.9,11,3.7,16.8-2.5,2.8-3.6,3.3-7.6,3.3s-5.1-.5-7.6-3.3c-4.9-5.5-3.5-13.1,3.1-16.4C527.25,715.2,527.25,715.2,531.45,717Z" transform="translate(0 -208.54)"/><path class="bf8bc484-66c6-4c10-907b-b46243515506" d="M547,727c0,8,.4,13,1,13s1-1.8,1-3.9v-3.9l4.6-.4c4.4-.3,4.6-.2,7.2,3.9,3.2,5.1,6.4,6.2,3.5,1.2a25.67,25.67,0,0,0-3-4.1c-1-.8-.6-1.7,1.7-3.8,5.3-4.9,3.4-12-3.8-14a39.68,39.68,0,0,0-7.9-1H547Zm11.2-10c4.3,1.2,6.1,3.8,5.2,7.5-.8,3.4-3.2,4.5-9.3,4.5H549v-6.5c0-6.4,0-6.5,2.8-6.5A33.49,33.49,0,0,1,558.2,717Z" transform="translate(0 -208.54)"/><path class="bf8bc484-66c6-4c10-907b-b46243515506" d="M578.55,715c-4.8,2.1-6.8,5.1-7.3,11-.4,5-.2,5.6,2.9,9.1,4.1,4.4,9.5,5.5,15.3,3.1,5.2-2.2,3.7-3.7-1.7-1.8-3.8,1.4-4.8,1.4-7.7.2-3.7-1.5-7-6.3-7-10,0-7.4,8.6-12.9,15.1-9.6,1.9.9,3.6,1.3,4.1.8,1.1-1.1-5.1-4.2-8.4-4.2A22.06,22.06,0,0,0,578.55,715Z" transform="translate(0 -208.54)"/><path class="bf8bc484-66c6-4c10-907b-b46243515506" d="M601.05,726.2c-3,6.7-5.6,12.5-5.8,13s.3.8,1.1.8,2.1-1.6,2.7-3.5l1.2-3.5h14.4l1.7,3.5c1.4,3,3.7,4.8,3.7,3s-11.4-25.5-12.4-25.5C607.05,714,604.05,719.5,601.05,726.2Zm9.6-3.1a45.34,45.34,0,0,1,2.4,6.5c0,.6-2.5,1-5.5,1s-5.5-.4-5.5-.9c0-1.2,5-12.1,5.6-12.1C608,717.6,609.25,720.1,610.65,723.1Z" transform="translate(0 -208.54)"/></g></svg>