<svg id="bcdd905a-dcbf-401e-b1ef-82ab42d8fa08" data-name="Capa 3" xmlns="http://www.w3.org/2000/svg" viewBox="0 0 661.27 729.79"><defs><style>.b3522db4-c679-4e29-948f-a36c5cc73238{fill:#173557;stroke:#fff;stroke-miterlimit:10;stroke-width:2px;}.a56d3cea-8533-4635-b596-eec76cc04124,.b3522db4-c679-4e29-948f-a36c5cc73238{fill-rule:evenodd;}.a56d3cea-8533-4635-b596-eec76cc04124{fill:#fff;}</style></defs><path class="b3522db4-c679-4e29-948f-a36c5cc73238" d="M421.36,231.83a31.43,31.43,0,0,1,7.41.65,23.79,23.79,0,0,1,6.93,2.6l99.38,52.59S716,389.36,730.8,401s17.45,28.74,17.45,28.74,4.2,325.48.53,344.16-17.24,26.18-17.24,26.18S445.65,952.65,435.91,956.47l-1.76.67a38.52,38.52,0,0,1-28.54-.58l-.22-.09c-9.61-4.15-295.63-156.4-295.63-156.4s-13.58-7.5-17.24-26.18.53-344.16.53-344.16,2.68-17.1,17.45-28.74S306.22,287.67,306.22,287.67l99.37-52.59a24,24,0,0,1,6.93-2.6,31.57,31.57,0,0,1,7.42-.65C420.41,231.85,420.89,231.85,421.36,231.83Z" transform="translate(-90.01 -230.81)"/><path class="a56d3cea-8533-4635-b596-eec76cc04124" d="M357.75,458.83c-10.4,10.7-16.5,20.3-20.7,32.4-6.9,19.8-7,39.4-.3,60,4.1,12.7,10.4,23,20.6,33.8,8.8,9.1,12.2,11.2,14.9,9,2.9-2.4,1.7-5.7-3.9-10.5-7.4-6.4-14.8-16.5-19.5-26.6-5.9-12.5-7.5-20-7.5-35.4,0-15.7,1.4-21.8,8.6-36.4,4.3-8.8,6.5-11.9,14.5-20.1,9-9.5,10.6-12.3,8.1-14.8C369.85,447.53,367.15,449.13,357.75,458.83Z" transform="translate(-90.01 -230.81)"/><path class="a56d3cea-8533-4635-b596-eec76cc04124" d="M410.85,450.13c-37.5,6.7-64.4,41.9-60.2,78.9,3,26.3,17.3,46.9,40.6,58.5a67.29,67.29,0,0,0,36,7.2c19.1-1,33.7-7.7,47.5-21.6,20-20.1,26.3-47.2,17.5-74.1-7.7-23.3-26.3-40.7-51-47.6C434.85,449.53,417.75,448.83,410.85,450.13Zm27.3,9.9c23,5.9,41.8,24.6,47,47,2,8.3,2,22.9.1,30.5-4.1,16.3-17.4,33.2-32.2,40.8-32.9,17.1-71.4,4.4-87.3-28.8-4.8-10-6.2-16.4-6.3-27.3,0-10.5,1.5-17.3,5.9-27.1C377.85,467.73,409.25,452.63,438.15,460Z" transform="translate(-90.01 -230.81)"/><path class="a56d3cea-8533-4635-b596-eec76cc04124" d="M400.9,476.93c-.6,1.3-1,17.3-1,45.1s.4,43.8,1,45.1c1.1,2,4.5,2.5,7,.9,1.2-.7,1.6-4.2,1.8-18.9l.3-17.9,12.2-.4c14.1-.4,17.6-1.7,24.4-9,5-5.5,6.8-10.4,6.7-18.8-.1-11.4-5.3-19.8-15.6-24.9-6-3-6.4-3.1-20.9-3.1C403.2,475,401.9,475.23,400.9,476.93Zm34.5,10.4c11.3,7.8,11.6,24.2.6,31.7-3.3,2.2-4.9,2.5-15,2.8l-11.3.4v-38.4l10.9.4C430.4,484.53,431.8,484.83,435.4,487.33Z" transform="translate(-90.01 -230.81)"/><path class="a56d3cea-8533-4635-b596-eec76cc04124" d="M474.55,450.13c-3.4,1.9-1.9,5,6.5,13.8a112.79,112.79,0,0,1,12.7,15.9c9.1,15.3,13.3,35,11,51.9-2.4,18.8-10,34.1-23.7,48.4-8.1,8.4-9.6,11.2-7.1,13.7,2.3,2.3,4.7,1.2,11.3-4.9a96.94,96.94,0,0,0,26.7-44.5c3.2-12,3-32.5-.5-45.5a89.71,89.71,0,0,0-24.9-42.5C479.85,449.83,477.25,448.53,474.55,450.13Z" transform="translate(-90.01 -230.81)"/><path class="a56d3cea-8533-4635-b596-eec76cc04124" d="M342.35,633.33l-2.65.7v51.4h9v-8c0-4.4.32-8,.85-8s3.81,3.9,7.52,8.5,7.09,8.5,7.62,8.5c1.27,0,7.31-3.4,7.31-4.2,0-.4-2.54-3.5-5.61-7s-6.25-7.1-7-8.1c-1.38-1.6-.85-2.4,5.29-8.3l6.78-6.5-2.65-1.9a10,10,0,0,0-3.7-2c-.53,0-4.45,3.3-8.69,7.2l-7.73,7.2v-15.2C348.7,631,348.92,631.63,342.35,633.33Z" transform="translate(-90.01 -230.81)"/><path class="a56d3cea-8533-4635-b596-eec76cc04124" d="M496.25,632.93c-3,.6-3,.7-3.3,8.2l-.3,7.5-5.7-.4c-6.7-.5-9.8,1.4-12.7,7.4-2.3,4.8-2.4,18.4-.2,23.6,2.7,6.5,11,8.8,17.5,4.8,2.5-1.5,3.2-1.7,3.2-.5,0,2.3,1.8,2.7,5.6,1.3,2.9-1,3.4-1.6,2.8-3.3-.3-1.1-.9-12.7-1.1-25.8-.4-17-.8-23.7-1.7-23.6C499.75,632.23,498,632.53,496.25,632.93Zm-3.7,33.1c.3,11.3-.4,13-5.4,13-3.8,0-5.4-3.6-5.4-12,0-9.6,1.5-12.2,6.8-11.8l3.7.3Z" transform="translate(-90.01 -230.81)"/><path class="a56d3cea-8533-4635-b596-eec76cc04124" d="M542.8,636.13c-7.1,3.5-10.6,13-9.9,27.2.5,11.1,3.4,17.4,9.4,20.8,5.1,2.9,14.1,3.1,20.2.3l4.2-1.9v-23.1h-16v3.5a3.5,3.5,0,0,0,3.5,3.5h3.5v12h-4.3c-5.4,0-8.1-2.5-9.8-9.3-1.5-6-.7-18.3,1.5-22.4,2.4-4.7,6.5-5.9,12.7-3.9,2.8,1,5.2,1.6,5.4,1.4a18.21,18.21,0,0,0,2.5-5.8C565.7,634.73,549.1,633,542.8,636.13Z" transform="translate(-90.01 -230.81)"/><path class="a56d3cea-8533-4635-b596-eec76cc04124" d="M240.7,660.43v25h9v-19.7l5.7-.6c8.9-.9,14.2-6.1,15-14.4a17.2,17.2,0,0,0-1.1-8.6c-2.2-5.3-6.1-6.7-18.6-6.7h-10Zm18.6-15.9c.8.6,1.4,2.9,1.4,5,0,5-2.7,7.9-7.5,7.9h-3.5v-6.8c0-3.8.3-7.2.8-7.6C251.4,642,257.5,643,259.3,644.53Z" transform="translate(-90.01 -230.81)"/><path class="a56d3cea-8533-4635-b596-eec76cc04124" d="M280.75,649.13c-3.2,1.3-3.2,1.1-1.9,4.8.9,2.4,1.6,3.1,2.8,2.6a23.79,23.79,0,0,1,5.8-1.2c5.1-.7,7.3.8,7.3,4.8,0,2.8-.2,2.9-4.5,2.9-9.6,0-14.5,4.2-14.5,12.3,0,4,.5,5.3,2.9,7.8,3.4,3.4,9.2,3.9,14.2,1.3,2.8-1.4,3.2-1.4,4.4.2s1.6,1.6,4.3.5l3-1.3-.4-7.4c-1.4-25.8-1.2-24.7-5.5-26.9C295.45,647.83,284.55,647.63,280.75,649.13Zm13.8,23.6c-.2,3.9-.8,5-2.7,5.9-4.6,2.3-8.8-1.5-7-6.3.5-1.3,2.2-2.6,4.1-3.2C294.75,667.53,294.85,667.63,294.55,672.73Z" transform="translate(-90.01 -230.81)"/><path class="a56d3cea-8533-4635-b596-eec76cc04124" d="M313.9,649.73c-1.8.8-2.2,1.6-1.7,3.1.4,1.2,1,9,1.2,17.3l.5,15.3h8.8v-13c0-12.7,0-13,2.5-14.6a6.83,6.83,0,0,1,4.6-1.1c1.6.4,2.4-.1,3.5-2.8,2-5,1.8-5.5-2.5-5.5a10.12,10.12,0,0,0-6.9,2.5l-3,2.5-.6-2.5C319.6,648.23,317.7,647.83,313.9,649.73Z" transform="translate(-90.01 -230.81)"/><path class="a56d3cea-8533-4635-b596-eec76cc04124" d="M402.75,648.73c-3.3,1.2-3.9,2.3-2.8,5.4.8,2.2,1.5,2.8,2.7,2.4a23.79,23.79,0,0,1,5.8-1.2c5.1-.7,7.3.8,7.3,4.8,0,2.8-.2,2.9-4.6,2.9-8.7,0-14.4,4.7-14.4,12,0,9.3,9.5,14.1,17.8,9,2.7-1.6,3.2-1.7,3.2-.5,0,2.4,2.5,2.8,5.9,1.1,2.7-1.4,2.9-1.9,2.1-4.2-.6-1.4-1-7.2-1-13,0-11.3-1.4-16.5-4.8-18.3C417.85,648,405.45,647.73,402.75,648.73Zm12.8,24c-.2,3.9-.7,5-2.8,6s-2.9,1-4.5-.1a5.9,5.9,0,0,1-1.6-7.4c.7-1.2,4.8-2.6,8.4-3.1C415.45,668,415.75,670.13,415.55,672.73Z" transform="translate(-90.01 -230.81)"/><path class="a56d3cea-8533-4635-b596-eec76cc04124" d="M435.3,649.13c-1.6.4-1.8,1.1-1.2,5,.3,2.5.6,10.6.6,17.9v13.4h9V672c0-14.2.2-14.9,5.1-16.1,5.1-1.3,5.9,1.1,5.9,16.1v13.4h9v-15c0-19.8-1-22-10.2-22a17,17,0,0,0-7.4,2l-3.2,2.1-.7-2.1C441.6,648.43,439.5,648,435.3,649.13Z" transform="translate(-90.01 -230.81)"/><path class="a56d3cea-8533-4635-b596-eec76cc04124" d="M582.05,650c-10.3,6.2-9.8,29,.7,34.2a16.84,16.84,0,0,0,15-.1c10.4-5.5,10.9-27.9.8-34.1C594.15,647.43,586.35,647.33,582.05,650Zm12.3,7.5c1.2,1.8,1.7,4.7,1.7,9.5,0,7.9-1.9,12-5.7,12-4.3,0-6-3.3-6.1-12,0-6.3.4-8.2,1.9-9.9C588.75,654.23,592.35,654.43,594.35,657.53Z" transform="translate(-90.01 -230.81)"/><path class="a56d3cea-8533-4635-b596-eec76cc04124" d="M235.75,714.73c-3.9,1.2-6.2,2.9-8,5.9-6.8,10.9,5.6,23.8,17,17.9,1.7-.9,3-2,3-2.5,0-1.3-.6-1.3-4.2.6-4.1,2.1-8.7,1.1-12.2-2.5-5.1-5.3-3.2-13.5,3.9-17,2.7-1.3,5.2-.9,11.3,1.5.6.3,1.2.1,1.2-.6C247.75,715.73,239.55,713.43,235.75,714.73Z" transform="translate(-90.01 -230.81)"/><path class="a56d3cea-8533-4635-b596-eec76cc04124" d="M259.35,719.63c-1.3,2.9-4,8.8-5.9,13-2.3,5.1-3.1,7.8-2.3,7.8s2-1.6,2.9-3.5l1.7-3.5h14l1.7,3.5c.9,1.9,2.2,3.5,2.9,3.5,1.5,0-9.6-25.2-11.4-25.8C262.25,714.43,260.75,716.53,259.35,719.63Zm6.5,4.1c1.3,3.2,2.6,6.1,2.7,6.5s-2.4.8-5.8.8-6-.4-5.8-.8,1.4-3.3,2.7-6.5,2.8-5.7,3.1-5.7S264.45,720.63,265.85,723.73Z" transform="translate(-90.01 -230.81)"/><path class="a56d3cea-8533-4635-b596-eec76cc04124" d="M279.7,727.33c0,8.1.4,13.1,1,13.1s1-1.8,1-4v-4h4.9c4.5,0,5,.2,7.5,4,1.4,2.2,3.3,4,4.1,4,1.1,0,.7-1.2-1.5-4.2-3.1-4.2-3.1-4.2-1-5.8,2.9-2.2,4-7,2.5-10.7s-3-4.3-11.7-5l-6.8-.6Zm15.2-8.2c2.3,2,2.3,6.1.1,8.5-1.2,1.3-3.1,1.8-7.5,1.8h-5.8v-5.8c0-3.2.3-6.2.8-6.6C283.6,715.83,293,717.43,294.9,719.13Z" transform="translate(-90.01 -230.81)"/><path class="a56d3cea-8533-4635-b596-eec76cc04124" d="M306.7,727c0,8,.4,13,1,13s1-1.7,1-3.9v-3.8l5.8-.7c6.9-.8,9.8-2.6,10.7-6.6,1.5-6.7-3.7-10.8-13.7-10.9l-4.8-.1Zm14-8.6c1.4.7,2,2.1,2,4.5,0,4.9-2.1,6.5-8.6,6.5h-5.4v-13.3l5,.6A25.36,25.36,0,0,1,320.7,718.43Z" transform="translate(-90.01 -230.81)"/><path class="a56d3cea-8533-4635-b596-eec76cc04124" d="M338.35,715.23c-2.9,4.7-11.2,25.2-10.2,25.2.7,0,2-1.6,2.9-3.5l1.7-3.5h14.1l1.5,3.5c.8,1.9,2.1,3.5,2.8,3.5,1,0-.2-3.8-4.3-12.7C341.35,715.63,339.65,713.13,338.35,715.23Zm4.6,9.1,2.6,6.2-5.5.3c-3,.2-5.7.1-5.9-.1-.5-.5,4.8-12.7,5.5-12.7C340,718,341.45,720.83,343,724.33Z" transform="translate(-90.01 -230.81)"/><path class="a56d3cea-8533-4635-b596-eec76cc04124" d="M356.7,727.43c0,8,.4,13,1,13s1-1.8,1-4v-4h4.9c4.5,0,5,.2,7.5,4,1.4,2.2,3.1,4,3.6,4,1.5,0,1.2-.7-1.5-4.7l-2.4-3.6,2.4-2.3c2.8-2.6,3.4-8.7,1.2-11.8-1.4-2-7.3-3.5-13.4-3.6h-4.3Zm15.2-8.3c2.3,2,2.3,6.1.1,8.5-1.2,1.3-3.1,1.8-7.5,1.8h-5.8v-5.8c0-3.2.3-6.2.8-6.6C360.6,715.83,370,717.43,371.9,719.13Z" transform="translate(-90.01 -230.81)"/><path class="a56d3cea-8533-4635-b596-eec76cc04124" d="M383.6,727c0,8,.4,13,1,13s1-1.5,1-3.4c0-3.1,3.1-8.6,4.9-8.6.4,0,2.9,2.7,5.4,6s5.4,6,6.3,6-.3-2.3-4-7.1l-5.6-7.2,5.1-5.8c7.5-8.7,3.6-7.2-4.8,1.8l-7.2,7.8-.1-7.8c0-4.4-.4-7.7-1-7.7S383.6,719,383.6,727Z" transform="translate(-90.01 -230.81)"/><path class="a56d3cea-8533-4635-b596-eec76cc04124" d="M418.75,727c0,15.9,1.8,17.7,2.2,2.2l.3-10.7,4.9,9.2c2.7,5.1,5.3,9.3,5.8,9.3s2.9-4.2,5.5-9.3l4.8-9.2.3,10.7c.4,15.5,2.2,13.7,2.2-2.2,0-16.4-1.1-16.9-7.7-3.6-2.6,5.2-5.1,9.2-5.5,9s-2.9-4.6-5.3-9.5C419.85,710.23,418.75,710.83,418.75,727Z" transform="translate(-90.01 -230.81)"/><path class="a56d3cea-8533-4635-b596-eec76cc04124" d="M459.15,718c-.8,2-3.3,7.5-5.5,12.2-4.2,9.1-4.5,10.2-2.8,10.2.5,0,1.7-1.6,2.5-3.5l1.4-3.5h14l1.7,3.5c2.2,4.7,4.8,4.9,2.8.2-4.5-10.8-10.5-22.7-11.5-22.7C461.15,714.43,460,716,459.15,718Zm5.9,6.2c1.5,3.4,2.5,6.3,2.3,6.5s-2.9.3-5.9.1l-5.5-.3,2.6-6.2c1.5-3.5,3-6.3,3.3-6.3S463.65,720.83,465.05,724.23Z" transform="translate(-90.01 -230.81)"/><path class="a56d3cea-8533-4635-b596-eec76cc04124" d="M478.7,727.43v13h7c4,0,7-.4,7-1s-2.5-1-5.5-1h-5.5v-12c0-10-.2-12-1.5-12S478.7,716.53,478.7,727.43Z" transform="translate(-90.01 -230.81)"/><path class="a56d3cea-8533-4635-b596-eec76cc04124" d="M497.7,727.43v13h7c8.4,0,9.4-1.8,1.3-2.2l-5.8-.3-.3-11.8C499.5,709.93,497.7,710.93,497.7,727.43Z" transform="translate(-90.01 -230.81)"/><path class="a56d3cea-8533-4635-b596-eec76cc04124" d="M521.85,715.83c-12.5,6.3-8.1,24.2,5.9,24.2,6.4,0,13-6.6,13-13a13.07,13.07,0,0,0-7.4-11.1C528.25,713.63,526.15,713.63,521.85,715.83Zm9.3,1.6c7.1,3,8.9,11,3.7,16.8-2.5,2.8-3.6,3.3-7.6,3.3s-5.1-.5-7.6-3.3c-4.9-5.5-3.5-13.1,3.1-16.4C527,715.63,527,715.63,531.15,717.43Z" transform="translate(-90.01 -230.81)"/><path class="a56d3cea-8533-4635-b596-eec76cc04124" d="M546.7,727.43c0,8,.4,13,1,13s1-1.8,1-3.9v-3.9l4.6-.4c4.4-.3,4.6-.2,7.2,3.9,3.2,5.1,6.4,6.2,3.5,1.2a25.67,25.67,0,0,0-3-4.1c-1-.8-.6-1.7,1.7-3.8,5.3-4.9,3.4-12-3.8-14a39.68,39.68,0,0,0-7.9-1h-4.3Zm11.2-10c4.3,1.2,6.1,3.8,5.2,7.5-.8,3.4-3.2,4.5-9.3,4.5h-5.1v-6.5c0-6.4,0-6.5,2.8-6.5A33.49,33.49,0,0,1,557.9,717.43Z" transform="translate(-90.01 -230.81)"/><path class="a56d3cea-8533-4635-b596-eec76cc04124" d="M578.25,715.43c-4.8,2.1-6.8,5.1-7.3,11-.4,5-.2,5.6,2.9,9.1,4.1,4.4,9.5,5.5,15.3,3.1,5.2-2.2,3.7-3.7-1.7-1.8-3.8,1.4-4.8,1.4-7.7.2-3.7-1.5-7-6.3-7-10,0-7.4,8.6-12.9,15.1-9.6,1.9.9,3.6,1.3,4.1.8,1.1-1.1-5.1-4.2-8.4-4.2A22.06,22.06,0,0,0,578.25,715.43Z" transform="translate(-90.01 -230.81)"/><path class="a56d3cea-8533-4635-b596-eec76cc04124" d="M600.75,726.63c-3,6.7-5.6,12.5-5.8,13s.3.8,1.1.8,2.1-1.6,2.7-3.5l1.2-3.5h14.4l1.7,3.5c1.4,3,3.7,4.8,3.7,3s-11.4-25.5-12.4-25.5C606.75,714.43,603.75,719.93,600.75,726.63Zm9.6-3.1a45.34,45.34,0,0,1,2.4,6.5c0,.6-2.5,1-5.5,1s-5.5-.4-5.5-.9c0-1.2,5-12.1,5.6-12.1C607.65,718,609,720.53,610.35,723.53Z" transform="translate(-90.01 -230.81)"/></svg>